<svg xmlns="http://www.w3.org/2000/svg" xmlns:xlink="http://www.w3.org/1999/xlink" preserveAspectRatio="xMidYMid meet" width="1086" height="609" viewBox="0 0 1086 609" style="width:100%;height:100%"><defs><clipPath id="_R_G_L_5_G_L_2_C_0"><path id="_R_G_L_5_G_L_2_C_0_P_0" fill-rule="nonzero" d="M898.77 120.89 C898.77,120.89 891.65,124.84 891.65,130.76 C891.65,139.46 899.56,141.83 899.56,141.83 C899.56,141.83 1067.06,141.83 1067.06,141.83 C1067.06,141.83 1074.17,141.04 1074.57,131.95 C1074.96,122.87 1067.06,121.28 1067.06,121.28 C1067.06,121.28 898.77,120.89 898.77,120.89z "/></clipPath><animateMotion repeatCount="indefinite" dur="3.0166667s" begin="0s" xlink:href="#_R_G_L_5_G_L_2_G_G_0_L_1_G" fill="freeze" keyTimes="0;0.3314917;1" path="M651.49 132.21 C651.49,132.21 1291.48,132.21 1291.48,132.21 C1291.48,132.21 1291.48,132.21 1291.48,132.21 " keyPoints="0;1;1" keySplines="0.84 0 0.16 1;0 0 0 0" calcMode="spline"/><animateTransform repeatCount="indefinite" dur="3.0166667s" begin="0s" xlink:href="#_R_G_L_5_G_L_2_G_G_0_L_1_G" fill="freeze" attributeName="transform" from="251.107 185.745" to="251.107 185.745" type="translate" additive="sum" keyTimes="0;1" values="251.107 185.745;251.107 185.745" keySplines="0 0 1 1" calcMode="spline"/><animate repeatCount="indefinite" dur="3.0166667s" begin="0s" xlink:href="#_R_G_L_5_G_L_2_G_G_0_L_1_G_M" fill="freeze" attributeName="opacity" from="1" to="0" keyTimes="0;0.3370166;0.3370166;1" values="1;1;0;0" keySplines="0 0 0 0;0 0 0 0;0 0 0 0" calcMode="spline"/><animateMotion repeatCount="indefinite" dur="3.0166667s" begin="0s" xlink:href="#_R_G_L_5_G_L_2_G_G_0_L_0_G" fill="freeze" keyTimes="0;0.4972376;0.8287293;1" path="M651.49 132.21 C651.49,132.21 651.49,132.21 651.49,132.21 C651.49,132.21 1291.48,132.21 1291.48,132.21 C1291.48,132.21 1291.48,132.21 1291.48,132.21 " keyPoints="0;0;1;1" keySplines="0.84 0 0.16 1;0.84 0 0.16 1;0 0 0 0" calcMode="spline"/><animateTransform repeatCount="indefinite" dur="3.0166667s" begin="0s" xlink:href="#_R_G_L_5_G_L_2_G_G_0_L_0_G" fill="freeze" attributeName="transform" from="251.107 185.745" to="251.107 185.745" type="translate" additive="sum" keyTimes="0;1" values="251.107 185.745;251.107 185.745" keySplines="0 0 1 1" calcMode="spline"/><animate repeatCount="indefinite" dur="3.0166667s" begin="0s" xlink:href="#_R_G_L_5_G_L_2_G_G_0_L_0_G_M" fill="freeze" attributeName="opacity" from="0" to="0" keyTimes="0;0.4972376;0.4972381;0.8342541;0.8342541;1" values="0;0;1;1;0;0" keySplines="0 0 0 0;0 0 0 0;0 0 0 0;0 0 0 0;0 0 0 0" calcMode="spline"/><clipPath id="_R_G_L_5_G_L_1_C_0"><path id="_R_G_L_5_G_L_1_C_0_P_0" fill-rule="nonzero" d="M898.77 120.89 C898.77,120.89 891.65,124.84 891.65,130.76 C891.65,139.46 899.56,141.83 899.56,141.83 C899.56,141.83 1067.06,141.83 1067.06,141.83 C1067.06,141.83 1074.17,141.04 1074.57,131.95 C1074.96,122.87 1067.06,121.28 1067.06,121.28 C1067.06,121.28 898.77,120.89 898.77,120.89z "/></clipPath><animateMotion repeatCount="indefinite" dur="3.0166667s" begin="0s" xlink:href="#_R_G_L_5_G_L_1_G_G_0_L_1_G" fill="freeze" keyTimes="0;0.1823204;0.5138122;1" path="M651.49 132.21 C651.49,132.21 651.49,132.21 651.49,132.21 C651.49,132.21 1291.48,132.21 1291.48,132.21 C1291.48,132.21 1291.48,132.21 1291.48,132.21 " keyPoints="0;0;1;1" keySplines="0.84 0 0.16 1;0.84 0 0.16 1;0 0 0 0" calcMode="spline"/><animateTransform repeatCount="indefinite" dur="3.0166667s" begin="0s" xlink:href="#_R_G_L_5_G_L_1_G_G_0_L_1_G" fill="freeze" attributeName="transform" from="251.107 185.745" to="251.107 185.745" type="translate" additive="sum" keyTimes="0;0.1823204;1" values="251.107 185.745;251.107 185.745;251.107 185.745" keySplines="0 0 1 1;0 0 0 0" calcMode="spline"/><animate repeatCount="indefinite" dur="3.0166667s" begin="0s" xlink:href="#_R_G_L_5_G_L_1_G_G_0_L_1_G_M" fill="freeze" attributeName="opacity" from="0" to="0" keyTimes="0;0.1823204;0.1823204;0.182321;0.519337;0.519337;1" values="0;0;0;1;1;0;0" keySplines="0 0 0 0;0 0 0 0;0 0 0 0;0 0 0 0;0 0 0 0;0 0 0 0" calcMode="spline"/><animateMotion repeatCount="indefinite" dur="3.0166667s" begin="0s" xlink:href="#_R_G_L_5_G_L_1_G_G_0_L_0_G" fill="freeze" keyTimes="0;0.1823204;0.679558;1" path="M651.49 132.21 C651.49,132.21 651.49,132.21 651.49,132.21 C651.49,132.21 651.49,132.21 651.49,132.21 C651.49,132.21 651.49,132.21 651.49,132.21 " keyPoints="0;NaN;NaN;1" keySplines="0.84 0 0.16 1;0.84 0 0.16 1;0 0 0 0" calcMode="spline"/><animateTransform repeatCount="indefinite" dur="3.0166667s" begin="0s" xlink:href="#_R_G_L_5_G_L_1_G_G_0_L_0_G" fill="freeze" attributeName="transform" from="251.107 185.745" to="251.107 185.745" type="translate" additive="sum" keyTimes="0;0.1823204;1" values="251.107 185.745;251.107 185.745;251.107 185.745" keySplines="0 0 1 1;0 0 0 0" calcMode="spline"/><animate repeatCount="indefinite" dur="3.0166667s" begin="0s" xlink:href="#_R_G_L_5_G_L_1_G_G_0_L_0_G_M" fill="freeze" attributeName="opacity" from="0" to="1" keyTimes="0;0.1823204;0.679558;0.6795586;1" values="0;0;0;1;1" keySplines="0 0 0 0;0 0 0 0;0 0 0 0;0 0 0 0" calcMode="spline"/><animate repeatCount="indefinite" dur="3.0166667s" begin="0s" xlink:href="#_R_G_L_5_G_L_1_G_M" fill="freeze" attributeName="opacity" from="0" to="1" keyTimes="0;0.1823204;0.182321;1" values="0;0;1;1" keySplines="0 0 0 0;0 0 0 0;0 0 0 0" calcMode="spline"/><clipPath id="_R_G_L_5_G_L_0_C_0"><path id="_R_G_L_5_G_L_0_C_0_P_0" fill-rule="nonzero" d="M898.77 120.89 C898.77,120.89 891.65,124.84 891.65,130.76 C891.65,139.46 899.56,141.83 899.56,141.83 C899.56,141.83 1067.06,141.83 1067.06,141.83 C1067.06,141.83 1074.17,141.04 1074.57,131.95 C1074.96,122.87 1067.06,121.28 1067.06,121.28 C1067.06,121.28 898.77,120.89 898.77,120.89z "/></clipPath><animateMotion repeatCount="indefinite" dur="3.0166667s" begin="0s" xlink:href="#_R_G_L_5_G_L_0_G_G_0_L_1_G" fill="freeze" keyTimes="0;0.5635359;0.8950276;1" path="M651.49 132.21 C651.49,132.21 651.49,132.21 651.49,132.21 C651.49,132.21 1291.48,132.21 1291.48,132.21 C1291.48,132.21 1291.48,132.21 1291.48,132.21 " keyPoints="0;0;1;1" keySplines="0.84 0 0.16 1;0.84 0 0.16 1;0 0 0 0" calcMode="spline"/><animateTransform repeatCount="indefinite" dur="3.0166667s" begin="0s" xlink:href="#_R_G_L_5_G_L_0_G_G_0_L_1_G" fill="freeze" attributeName="transform" from="251.107 185.745" to="251.107 185.745" type="translate" additive="sum" keyTimes="0;0.5635359;1" values="251.107 185.745;251.107 185.745;251.107 185.745" keySplines="0 0 1 1;0 0 0 0" calcMode="spline"/><animate repeatCount="indefinite" dur="3.0166667s" begin="0s" xlink:href="#_R_G_L_5_G_L_0_G_G_0_L_1_G_M" fill="freeze" attributeName="opacity" from="0" to="0" keyTimes="0;0.5635359;0.5635359;0.5635365;0.9005525;0.9005525;1" values="0;0;0;1;1;0;0" keySplines="0 0 0 0;0 0 0 0;0 0 0 0;0 0 0 0;0 0 0 0;0 0 0 0" calcMode="spline"/><animateMotion repeatCount="indefinite" dur="3.0166667s" begin="0s" xlink:href="#_R_G_L_5_G_L_0_G_G_0_L_0_G" fill="freeze" keyTimes="0;0.5635359;1" path="M651.49 132.21 C651.49,132.21 651.49,132.21 651.49,132.21 C651.49,132.21 651.49,132.21 651.49,132.21 " keyPoints="0;NaN;1" keySplines="0.84 0 0.16 1;0 0 0 0" calcMode="spline"/><animateTransform repeatCount="indefinite" dur="3.0166667s" begin="0s" xlink:href="#_R_G_L_5_G_L_0_G_G_0_L_0_G" fill="freeze" attributeName="transform" from="251.107 185.745" to="251.107 185.745" type="translate" additive="sum" keyTimes="0;0.5635359;1" values="251.107 185.745;251.107 185.745;251.107 185.745" keySplines="0 0 1 1;0 0 0 0" calcMode="spline"/><animate repeatCount="indefinite" dur="3.0166667s" begin="0s" xlink:href="#_R_G_L_5_G_L_0_G_G_0_L_0_G_M" fill="freeze" attributeName="opacity" from="0" to="0" keyTimes="0;0.5635359;1" values="0;0;0" keySplines="0 0 0 0;0 0 0 0" calcMode="spline"/><animate repeatCount="indefinite" dur="3.0166667s" begin="0s" xlink:href="#_R_G_L_5_G_L_0_G_M" fill="freeze" attributeName="opacity" from="0" to="1" keyTimes="0;0.5635359;0.5635365;1" values="0;0;1;1" keySplines="0 0 0 0;0 0 0 0;0 0 0 0" calcMode="spline"/><animateMotion repeatCount="indefinite" dur="3.0166667s" begin="0s" xlink:href="#_R_G_L_5_G_N_6_T_0" fill="freeze" keyTimes="0;0.0828729;0.1657459;0.2486188;0.3314917;0.4143646;0.4972376;0.5801105;0.6629834;0.7458564;0.8287293;0.9116022;0.9944751;1" path="M-59.68 -39.05 C-59.68,-39.05 -59.68,-59.05 -59.68,-59.05 C-59.68,-59.05 -59.68,-39.05 -59.68,-39.05 C-59.68,-39.05 -59.68,-59.05 -59.68,-59.05 C-59.68,-59.05 -59.68,-39.05 -59.68,-39.05 C-59.68,-39.05 -59.68,-59.05 -59.68,-59.05 C-59.68,-59.05 -59.68,-39.05 -59.68,-39.05 C-59.68,-39.05 -59.68,-59.05 -59.68,-59.05 C-59.68,-59.05 -59.68,-39.05 -59.68,-39.05 C-59.68,-39.05 -59.68,-59.05 -59.68,-59.05 C-59.68,-59.05 -59.68,-39.05 -59.68,-39.05 C-59.68,-39.05 -59.68,-59.05 -59.68,-59.05 C-59.68,-59.05 -59.68,-39.05 -59.68,-39.05 C-59.68,-39.05 -59.68,-39.05 -59.68,-39.05 " keyPoints="0;0.08;0.17;0.25;0.33;0.42;0.5;0.58;0.67;0.75;0.83;0.92;1;1" keySplines="0.333 0 0.667 1;0.333 0 0.667 1;0.333 0 0.667 1;0.333 0 0.667 1;0.333 0 0.667 1;0.333 0 0.667 1;0.333 0 0.667 1;0.333 0 0.667 1;0.333 0 0.667 1;0.333 0 0.667 1;0.333 0 0.667 1;0.333 0 0.667 1;0 0 0 0" calcMode="spline"/><animateTransform repeatCount="indefinite" dur="3.0166667s" begin="0s" xlink:href="#_R_G_L_5_G_N_6_T_0" fill="freeze" attributeName="transform" from="-417.801 -226.698" to="-417.801 -226.698" type="translate" additive="sum" keyTimes="0;1" values="-417.801 -226.698;-417.801 -226.698" keySplines="0 0 1 1" calcMode="spline"/><animateMotion repeatCount="indefinite" dur="3.0166667s" begin="0s" xlink:href="#_R_G_L_5_G_N_6_N_1_T_0" fill="freeze" keyTimes="0;0.4972376;0.9944751;1" path="M543 304.5 C543,304.5 575,304.5 575,304.5 C575,304.5 543,304.5 543,304.5 C543,304.5 543,304.5 543,304.5 " keyPoints="0;0.5;1;1" keySplines="0.333 0 0.667 1;0.333 0 0.667 1;0 0 0 0" calcMode="spline"/><animateTransform repeatCount="indefinite" dur="3.0166667s" begin="0s" xlink:href="#_R_G_L_5_G_N_6_N_1_T_0" fill="freeze" attributeName="transform" from="-1 1" to="-1 1" type="scale" additive="sum" keyTimes="0;1" values="-1 1;-1 1" keySplines="0 0 1 1" calcMode="spline"/><animateMotion repeatCount="indefinite" dur="3.0166667s" begin="0s" xlink:href="#_R_G_L_4_G" fill="freeze" keyTimes="0;0.0828729;0.1657459;0.2486188;0.3314917;0.4143646;0.4972376;0.5801105;0.6629834;0.7458564;0.8287293;0.9116022;0.9944751;1" path="M-59.68 -39.05 C-59.68,-39.05 -59.68,-59.05 -59.68,-59.05 C-59.68,-59.05 -59.68,-39.05 -59.68,-39.05 C-59.68,-39.05 -59.68,-59.05 -59.68,-59.05 C-59.68,-59.05 -59.68,-39.05 -59.68,-39.05 C-59.68,-39.05 -59.68,-59.05 -59.68,-59.05 C-59.68,-59.05 -59.68,-39.05 -59.68,-39.05 C-59.68,-39.05 -59.68,-59.05 -59.68,-59.05 C-59.68,-59.05 -59.68,-39.05 -59.68,-39.05 C-59.68,-39.05 -59.68,-59.05 -59.68,-59.05 C-59.68,-59.05 -59.68,-39.05 -59.68,-39.05 C-59.68,-39.05 -59.68,-59.05 -59.68,-59.05 C-59.68,-59.05 -59.68,-39.05 -59.68,-39.05 C-59.68,-39.05 -59.68,-39.05 -59.68,-39.05 " keyPoints="0;0.08;0.17;0.25;0.33;0.42;0.5;0.58;0.67;0.75;0.83;0.92;1;1" keySplines="0.333 0 0.667 1;0.333 0 0.667 1;0.333 0 0.667 1;0.333 0 0.667 1;0.333 0 0.667 1;0.333 0 0.667 1;0.333 0 0.667 1;0.333 0 0.667 1;0.333 0 0.667 1;0.333 0 0.667 1;0.333 0 0.667 1;0.333 0 0.667 1;0 0 0 0" calcMode="spline"/><animateTransform repeatCount="indefinite" dur="3.0166667s" begin="0s" xlink:href="#_R_G_L_4_G" fill="freeze" attributeName="transform" from="-417.801 -226.698" to="-417.801 -226.698" type="translate" additive="sum" keyTimes="0;1" values="-417.801 -226.698;-417.801 -226.698" keySplines="0 0 1 1" calcMode="spline"/><animateMotion repeatCount="indefinite" dur="3.0166667s" begin="0s" xlink:href="#_R_G_L_4_G_N_1_T_0" fill="freeze" keyTimes="0;0.4972376;0.9944751;1" path="M543 304.5 C543,304.5 575,304.5 575,304.5 C575,304.5 543,304.5 543,304.5 C543,304.5 543,304.5 543,304.5 " keyPoints="0;0.5;1;1" keySplines="0.333 0 0.667 1;0.333 0 0.667 1;0 0 0 0" calcMode="spline"/><animateTransform repeatCount="indefinite" dur="3.0166667s" begin="0s" xlink:href="#_R_G_L_4_G_N_1_T_0" fill="freeze" attributeName="transform" from="-1 1" to="-1 1" type="scale" additive="sum" keyTimes="0;1" values="-1 1;-1 1" keySplines="0 0 1 1" calcMode="spline"/><animateTransform repeatCount="indefinite" dur="3.0166667s" begin="0s" xlink:href="#_R_G_L_3_G" fill="freeze" attributeName="transform" from="0" to="-1800" type="rotate" additive="sum" keyTimes="0;0.9944751;1" values="0;-1800;-1800" keySplines="0.167 0.167 0.833 0.833;0 0 0 0" calcMode="spline"/><animateTransform repeatCount="indefinite" dur="3.0166667s" begin="0s" xlink:href="#_R_G_L_3_G" fill="freeze" attributeName="transform" from="-83.52 -83.621" to="-83.52 -83.621" type="translate" additive="sum" keyTimes="0;1" values="-83.52 -83.621;-83.52 -83.621" keySplines="0 0 1 1" calcMode="spline"/><animateMotion repeatCount="indefinite" dur="3.0166667s" begin="0s" xlink:href="#_R_G_L_3_G_N_1_T_0" fill="freeze" keyTimes="0;0.4972376;0.9944751;1" path="M543 304.5 C543,304.5 575,304.5 575,304.5 C575,304.5 543,304.5 543,304.5 C543,304.5 543,304.5 543,304.5 " keyPoints="0;0.5;1;1" keySplines="0.333 0 0.667 1;0.333 0 0.667 1;0 0 0 0" calcMode="spline"/><animateTransform repeatCount="indefinite" dur="3.0166667s" begin="0s" xlink:href="#_R_G_L_3_G_N_1_T_0" fill="freeze" attributeName="transform" from="-1 1" to="-1 1" type="scale" additive="sum" keyTimes="0;1" values="-1 1;-1 1" keySplines="0 0 1 1" calcMode="spline"/><animateMotion repeatCount="indefinite" dur="3.0166667s" begin="0s" xlink:href="#_R_G_L_2_G_N_1_T_0" fill="freeze" keyTimes="0;0.4972376;0.9944751;1" path="M543 304.5 C543,304.5 575,304.5 575,304.5 C575,304.5 543,304.5 543,304.5 C543,304.5 543,304.5 543,304.5 " keyPoints="0;0.5;1;1" keySplines="0.333 0 0.667 1;0.333 0 0.667 1;0 0 0 0" calcMode="spline"/><animateTransform repeatCount="indefinite" dur="3.0166667s" begin="0s" xlink:href="#_R_G_L_2_G_N_1_T_0" fill="freeze" attributeName="transform" from="-1 1" to="-1 1" type="scale" additive="sum" keyTimes="0;1" values="-1 1;-1 1" keySplines="0 0 1 1" calcMode="spline"/><animateTransform repeatCount="indefinite" dur="3.0166667s" begin="0s" xlink:href="#_R_G_L_1_G" fill="freeze" attributeName="transform" from="0" to="-1800" type="rotate" additive="sum" keyTimes="0;0.9944751;1" values="0;-1800;-1800" keySplines="0.167 0.167 0.833 0.833;0 0 0 0" calcMode="spline"/><animateTransform repeatCount="indefinite" dur="3.0166667s" begin="0s" xlink:href="#_R_G_L_1_G" fill="freeze" attributeName="transform" from="-83.52 -83.621" to="-83.52 -83.621" type="translate" additive="sum" keyTimes="0;1" values="-83.52 -83.621;-83.52 -83.621" keySplines="0 0 1 1" calcMode="spline"/><animateMotion repeatCount="indefinite" dur="3.0166667s" begin="0s" xlink:href="#_R_G_L_1_G_N_1_T_0" fill="freeze" keyTimes="0;0.4972376;0.9944751;1" path="M543 304.5 C543,304.5 575,304.5 575,304.5 C575,304.5 543,304.5 543,304.5 C543,304.5 543,304.5 543,304.5 " keyPoints="0;0.5;1;1" keySplines="0.333 0 0.667 1;0.333 0 0.667 1;0 0 0 0" calcMode="spline"/><animateTransform repeatCount="indefinite" dur="3.0166667s" begin="0s" xlink:href="#_R_G_L_1_G_N_1_T_0" fill="freeze" attributeName="transform" from="-1 1" to="-1 1" type="scale" additive="sum" keyTimes="0;1" values="-1 1;-1 1" keySplines="0 0 1 1" calcMode="spline"/><animateMotion repeatCount="indefinite" dur="3.0166667s" begin="0s" xlink:href="#_R_G_L_0_G_N_1_T_0" fill="freeze" keyTimes="0;0.4972376;0.9944751;1" path="M543 304.5 C543,304.5 575,304.5 575,304.5 C575,304.5 543,304.5 543,304.5 C543,304.5 543,304.5 543,304.5 " keyPoints="0;0.5;1;1" keySplines="0.333 0 0.667 1;0.333 0 0.667 1;0 0 0 0" calcMode="spline"/><animateTransform repeatCount="indefinite" dur="3.0166667s" begin="0s" xlink:href="#_R_G_L_0_G_N_1_T_0" fill="freeze" attributeName="transform" from="-1 1" to="-1 1" type="scale" additive="sum" keyTimes="0;1" values="-1 1;-1 1" keySplines="0 0 1 1" calcMode="spline"/><animate attributeType="XML" attributeName="opacity" dur="3s" from="0" to="1" xlink:href="#time_group"/></defs><g id="_R_G"><g id="_R_G_L_5_G_N_6_N_1_T_0"><g id="_R_G_L_5_G_N_6_T_0"><g id="_R_G_L_5_G" transform=" translate(477.481, 265.75) translate(-543, -304.5)"><g id="_R_G_L_5_G_L_2_G"><g clip-path="url(#_R_G_L_5_G_L_2_C_0)"><g id="_R_G_L_5_G_L_2_G_G_0_L_1_G_M"><g id="_R_G_L_5_G_L_2_G_G_0_L_1_G"><path id="_R_G_L_5_G_L_2_G_G_0_L_1_G_D_0_P_0" fill="#000" fill-opacity="1" fill-rule="nonzero" d=" M-36.9 -185.74 C-36.9,-185.74 -36.9,-185.74 -36.9,-185.74 C-36.9,-179.01 -42.38,-173.54 -49.11,-173.54 C-49.11,-173.54 -453.1,-173.54 -453.1,-173.54 C-459.84,-173.54 -465.31,-179.01 -465.31,-185.74 C-465.31,-185.74 -465.31,-185.74 -465.31,-185.74 C-465.31,-192.48 -459.84,-197.95 -453.1,-197.95 C-453.1,-197.95 -49.11,-197.95 -49.11,-197.95 C-42.38,-197.95 -36.9,-192.48 -36.9,-185.74z "/></g></g><g id="_R_G_L_5_G_L_2_G_G_0_L_0_G_M"><g id="_R_G_L_5_G_L_2_G_G_0_L_0_G"><path id="_R_G_L_5_G_L_2_G_G_0_L_0_G_D_0_P_0" fill="#000" fill-opacity="1" fill-rule="nonzero" d=" M-36.9 -185.74 C-36.9,-185.74 -36.9,-185.74 -36.9,-185.74 C-36.9,-179.01 -42.38,-173.54 -49.11,-173.54 C-49.11,-173.54 -453.1,-173.54 -453.1,-173.54 C-459.84,-173.54 -465.31,-179.01 -465.31,-185.74 C-465.31,-185.74 -465.31,-185.74 -465.31,-185.74 C-465.31,-192.48 -459.84,-197.95 -453.1,-197.95 C-453.1,-197.95 -49.11,-197.95 -49.11,-197.95 C-42.38,-197.95 -36.9,-192.48 -36.9,-185.74z "/></g></g></g></g><g id="_R_G_L_5_G_L_1_G_M"><g id="_R_G_L_5_G_L_1_G" transform=" translate(983.309, 164.691) translate(-983.309, -131.358)"><g clip-path="url(#_R_G_L_5_G_L_1_C_0)"><g id="_R_G_L_5_G_L_1_G_G_0_L_1_G_M"><g id="_R_G_L_5_G_L_1_G_G_0_L_1_G"><path id="_R_G_L_5_G_L_1_G_G_0_L_1_G_D_0_P_0" fill="#000" fill-opacity="1" fill-rule="nonzero" d=" M-36.9 -185.74 C-36.9,-185.74 -36.9,-185.74 -36.9,-185.74 C-36.9,-179.01 -42.38,-173.54 -49.11,-173.54 C-49.11,-173.54 -453.1,-173.54 -453.1,-173.54 C-459.84,-173.54 -465.31,-179.01 -465.31,-185.74 C-465.31,-185.74 -465.31,-185.74 -465.31,-185.74 C-465.31,-192.48 -459.84,-197.95 -453.1,-197.95 C-453.1,-197.95 -49.11,-197.95 -49.11,-197.95 C-42.38,-197.95 -36.9,-192.48 -36.9,-185.74z "/></g></g><g id="_R_G_L_5_G_L_1_G_G_0_L_0_G_M"><g id="_R_G_L_5_G_L_1_G_G_0_L_0_G"><path id="_R_G_L_5_G_L_1_G_G_0_L_0_G_D_0_P_0" fill="#000" fill-opacity="1" fill-rule="nonzero" d=" M-36.9 -185.74 C-36.9,-185.74 -36.9,-185.74 -36.9,-185.74 C-36.9,-179.01 -42.38,-173.54 -49.11,-173.54 C-49.11,-173.54 -453.1,-173.54 -453.1,-173.54 C-459.84,-173.54 -465.31,-179.01 -465.31,-185.74 C-465.31,-185.74 -465.31,-185.74 -465.31,-185.74 C-465.31,-192.48 -459.84,-197.95 -453.1,-197.95 C-453.1,-197.95 -49.11,-197.95 -49.11,-197.95 C-42.38,-197.95 -36.9,-192.48 -36.9,-185.74z "/></g></g></g></g></g><g id="_R_G_L_5_G_L_0_G_M"><g id="_R_G_L_5_G_L_0_G" transform=" translate(983.309, 194.691) translate(-983.309, -131.358)"><g clip-path="url(#_R_G_L_5_G_L_0_C_0)"><g id="_R_G_L_5_G_L_0_G_G_0_L_1_G_M"><g id="_R_G_L_5_G_L_0_G_G_0_L_1_G"><path id="_R_G_L_5_G_L_0_G_G_0_L_1_G_D_0_P_0" fill="#000" fill-opacity="1" fill-rule="nonzero" d=" M-36.9 -185.74 C-36.9,-185.74 -36.9,-185.74 -36.9,-185.74 C-36.9,-179.01 -42.38,-173.54 -49.11,-173.54 C-49.11,-173.54 -453.1,-173.54 -453.1,-173.54 C-459.84,-173.54 -465.31,-179.01 -465.31,-185.74 C-465.31,-185.74 -465.31,-185.74 -465.31,-185.74 C-465.31,-192.48 -459.84,-197.95 -453.1,-197.95 C-453.1,-197.95 -49.11,-197.95 -49.11,-197.95 C-42.38,-197.95 -36.9,-192.48 -36.9,-185.74z "/></g></g><g id="_R_G_L_5_G_L_0_G_G_0_L_0_G_M"><g id="_R_G_L_5_G_L_0_G_G_0_L_0_G"><path id="_R_G_L_5_G_L_0_G_G_0_L_0_G_D_0_P_0" fill="#000" fill-opacity="1" fill-rule="nonzero" d=" M-36.9 -185.74 C-36.9,-185.74 -36.9,-185.74 -36.9,-185.74 C-36.9,-179.01 -42.38,-173.54 -49.11,-173.54 C-49.11,-173.54 -453.1,-173.54 -453.1,-173.54 C-459.84,-173.54 -465.31,-179.01 -465.31,-185.74 C-465.31,-185.74 -465.31,-185.74 -465.31,-185.74 C-465.31,-192.48 -459.84,-197.95 -453.1,-197.95 C-453.1,-197.95 -49.11,-197.95 -49.11,-197.95 C-42.38,-197.95 -36.9,-192.48 -36.9,-185.74z "/></g></g></g></g></g></g></g></g><g id="_R_G_L_4_G_N_1_T_0"><g id="_R_G_L_4_G"><path id="_R_G_L_4_G_D_0_P_0" fill="#000" fill-opacity="1" fill-rule="nonzero" d=" M4.23 319.86 C4.23,319.86 50.18,436.15 50.18,436.15 C54.83,444.51 63.59,449.76 73.15,449.92 C73.15,449.92 398.58,451.34 398.58,451.34 C411.63,451.2 422.68,441.71 424.79,428.83 C424.79,428.83 439.42,345.35 439.42,345.35 C439.89,342.3 439.89,339.2 439.42,336.14 C439.42,336.14 406.3,132.83 406.3,132.83 C404.44,119.94 393.51,110.31 380.49,110.09 C380.49,110.09 131.69,108.99 131.69,108.99 C128.46,108.89 125.43,110.58 123.83,113.4 C123.83,113.4 4.46,292.87 4.46,292.87 C0.34,301.37 0.25,311.28 4.23,319.86z "/><path id="_R_G_L_4_G_D_1_P_0" fill="#2c2c2c" fill-opacity="1" fill-rule="nonzero" d=" M249.8 109.46 C249.8,109.46 196.29,297.51 196.29,297.51 C188.97,316.24 187.01,326.86 167.49,329.62 C167.49,329.62 16.66,351.57 16.66,351.57 C16.66,351.57 35.54,398.78 35.54,398.78 C35.54,398.78 364.51,400.27 364.51,400.27 C364.51,400.27 301.57,109.15 301.57,109.15 C301.57,109.15 249.8,109.46 249.8,109.46z "/><path id="_R_G_L_4_G_D_2_P_0" fill="#000" fill-opacity="1" fill-rule="nonzero" d=" M306.13 400.35 C306.13,400.35 806.4,402.55 806.4,402.55 C806.4,402.55 830,354.4 830,354.4 C833.8,346.64 835.35,337.97 834.49,329.38 C834.49,329.38 803.96,10.48 803.96,10.48 C803.55,6.04 799.84,2.63 795.38,2.61 C795.38,2.61 277.18,0.25 277.18,0.25 C274.68,0.28 272.31,1.36 270.66,3.24 C269.01,5.12 268.23,7.6 268.52,10.08 C268.52,10.08 306.13,400.35 306.13,400.35z "/><path id="_R_G_L_4_G_D_3_P_0" fill="#191919" fill-opacity="1" fill-rule="nonzero" d=" M623.54 242.43 C623.54,242.43 712.61,402 712.61,402 C712.61,402 806.4,402 806.4,402 C806.4,402 830,353.85 830,353.85 C833.79,346.12 835.35,337.48 834.49,328.91 C834.49,328.91 803.96,10.48 803.96,10.48 C803.55,6.04 799.84,2.63 795.38,2.61 C795.38,2.61 742.59,2.61 742.59,2.61 C742.59,2.61 623.77,210.1 623.77,210.1 C618.11,220.11 618.02,232.34 623.54,242.43z "/><path id="_R_G_L_4_G_D_4_P_0" fill="#292929" fill-opacity="1" fill-rule="nonzero" d=" M505.44 450.31 C505.44,450.31 696.48,451.18 696.48,451.18 C696.72,398.42 654.14,355.46 601.39,355.23 C548.63,354.99 505.67,397.56 505.44,450.31z "/><path id="_R_G_L_4_G_D_5_P_0" fill="#000" fill-opacity="1" fill-rule="nonzero" d=" M83.7 448.5 C83.7,448.5 274.74,449.29 274.74,449.29 C274.88,415.17 256.8,383.56 227.32,366.37 C197.84,349.19 161.42,349.04 131.8,365.98 C102.18,382.92 83.84,414.38 83.7,448.5z "/><path id="_R_G_L_4_G_D_6_P_0" fill="#fff" fill-opacity="1" fill-rule="nonzero" d=" M29.56 426.32 C29.39,432.44 31.68,438.37 35.9,442.8 C40.13,447.24 45.94,449.8 52.07,449.92 C52.07,449.92 782.95,453.15 782.95,453.15 C795.83,452.93 806.16,442.43 806.16,429.54 C806.16,429.54 29.56,426.32 29.56,426.32z "/><path id="_R_G_L_4_G_D_7_P_0" fill="#f8f8f8" fill-opacity="1" fill-rule="nonzero" d=" M124.77 240.86 C118.78,240.86 113.26,237.64 110.29,232.44 C107.19,227.03 107.19,220.38 110.29,214.97 C110.29,214.97 141.14,160.45 141.14,160.45 C144.13,155.13 149.75,151.83 155.85,151.79 C155.85,151.79 241.38,151.79 241.38,151.79 C250.22,151.85 257.52,158.71 258.14,167.53 C258.14,167.53 262.31,222.61 262.31,222.61 C262.67,227.45 261.02,232.24 257.74,235.83 C254.58,239.3 250.09,241.27 245.39,241.26 C245.39,241.26 124.77,240.86 124.77,240.86z "/><path id="_R_G_L_4_G_D_8_P_0" fill="#fff" fill-opacity="1" fill-rule="nonzero" d=" M155.77 155.41 C155.77,155.41 155.77,155.41 155.77,155.41 C155.77,155.41 241.14,155.41 241.14,155.41 C248.1,155.56 253.79,160.98 254.28,167.92 C254.28,167.92 258.45,223 258.45,223 C258.8,226.73 257.58,230.43 255.09,233.22 C252.6,236.02 249.05,237.64 245.31,237.71 C245.31,237.71 124.85,237.24 124.85,237.24 C120.06,237.09 115.69,234.43 113.37,230.23 C111.05,226.04 111.1,220.93 113.52,216.78 C113.52,216.78 144.36,162.26 144.36,162.26 C146.67,158.07 151.06,155.45 155.85,155.41  M155.85 148.09 C148.42,148.11 141.59,152.14 137.99,158.64 C137.99,158.64 106.99,213.16 106.99,213.16 C103.21,219.71 103.21,227.78 106.99,234.33 C110.6,240.66 117.33,244.56 124.61,244.56 C124.61,244.56 245.08,245.11 245.08,245.11 C250.81,245.1 256.28,242.7 260.18,238.5 C264.09,234.22 266.08,228.54 265.69,222.77 C265.69,222.77 261.52,167.69 261.52,167.69 C260.78,156.94 251.92,148.55 241.14,148.41 C241.14,148.41 155.69,148.41 155.69,148.41 C155.69,148.41 155.85,148.09 155.85,148.09z "/><path id="_R_G_L_4_G_D_9_P_0" fill="#292929" fill-opacity="1" fill-rule="nonzero" d=" M265.14 235.98 C265.14,235.98 261.05,181.69 261.05,181.69 C260.72,177.32 258.32,173.37 254.6,171.07 C254.6,171.07 258.61,223.47 258.61,223.47 C258.85,227.15 257.55,230.77 255.04,233.47 C252.52,236.16 249,237.7 245.31,237.71 C245.31,237.71 124.85,237.24 124.85,237.24 C122.55,237.2 120.31,236.57 118.32,235.43 C117.97,239.16 119.18,242.86 121.68,245.66 C124.17,248.45 127.71,250.08 131.46,250.15 C131.46,250.15 251.92,250.7 251.92,250.7 C255.67,250.62 259.22,249 261.72,246.21 C264.23,243.42 265.47,239.72 265.14,235.98z "/><path id="_R_G_L_4_G_D_10_P_0" fill="#000" fill-opacity="1" fill-rule="nonzero" d=" M150.89 175.16 C153.22,170.96 157.66,168.37 162.46,168.39 C162.46,168.39 247.83,168.39 247.83,168.39 C250.19,168.4 252.5,169.06 254.52,170.28 C254.52,170.28 254.52,167.92 254.52,167.92 C254.03,160.98 248.33,155.56 241.38,155.41 C241.38,155.41 156.01,155.41 156.01,155.41 C151.2,155.43 146.77,158.05 144.44,162.26 C144.44,162.26 113.6,216.78 113.6,216.78 C109.86,223.27 111.99,231.55 118.4,235.43 C118.55,233.43 119.17,231.49 120.21,229.77 C120.21,229.77 150.89,175.16 150.89,175.16z "/><path id="_R_G_L_4_G_D_11_P_0" fill="#000" fill-opacity="1" fill-rule="nonzero" d=" M220.53 292.95 C220.53,292.95 258.14,293.11 258.14,293.11 C258.14,293.11 258.22,280.12 258.22,280.12 C258.22,280.12 220.6,279.97 220.6,279.97 C220.6,279.97 220.53,292.95 220.53,292.95z "/><path id="_R_G_L_4_G_D_12_P_0" fill="#fff" fill-opacity="1" fill-rule="nonzero" d=" M220.45 299.4 C220.45,299.4 258.14,299.56 258.14,299.56 C258.14,299.56 258.21,286.58 258.21,286.58 C258.21,286.58 220.6,286.42 220.6,286.42 C220.6,286.42 220.45,299.4 220.45,299.4z "/><path id="_R_G_L_4_G_D_13_P_0" fill="#ffffff" fill-opacity="1" fill-rule="nonzero" d=" M2.65 320.64 C2.65,320.64 5.8,319.31 5.8,319.31 C6.42,319.05 7.11,319.06 7.72,319.33 C8.33,319.59 8.8,320.1 9.03,320.72 C9.03,320.72 19.34,346.92 19.34,346.92 C19.89,348.23 19.29,349.73 18,350.31 C18,350.31 14.93,351.57 14.93,351.57 C14.31,351.83 13.62,351.84 13,351.58 C12.38,351.33 11.88,350.85 11.62,350.23 C11.62,350.23 1.39,323.95 1.39,323.95 C0.84,322.69 1.4,321.22 2.65,320.64z "/><path id="_R_G_L_4_G_D_14_P_0" fill="#d07143" fill-opacity="1" fill-rule="nonzero" d=" M14.3 351.49 C14.3,351.49 18.63,349.6 18.63,349.6 C19.08,349.42 19.58,349.43 20.02,349.62 C20.47,349.81 20.81,350.17 20.99,350.62 C20.99,350.62 26.02,363.21 26.02,363.21 C26.41,364.15 26,365.22 25.08,365.65 C25.08,365.65 20.67,367.54 20.67,367.54 C20.22,367.72 19.72,367.71 19.28,367.52 C18.84,367.33 18.49,366.97 18.31,366.52 C18.31,366.52 13.28,353.85 13.28,353.85 C13.1,353.4 13.1,352.9 13.29,352.46 C13.49,352.01 13.85,351.66 14.3,351.49z "/><path id="_R_G_L_4_G_D_15_P_0" fill="#fff" fill-opacity="1" fill-rule="nonzero" d=" M9.89 375.8 C9.89,375.8 63.71,375.8 63.71,375.8 C68.73,375.93 72.73,380.06 72.68,385.09 C72.68,385.09 72.68,416.56 72.68,416.56 C72.7,418.98 71.76,421.31 70.06,423.04 C68.37,424.76 66.05,425.74 63.63,425.76 C63.63,425.76 9.26,425.61 9.26,425.61 C6.84,425.57 4.54,424.56 2.85,422.82 C1.17,421.08 0.25,418.74 0.29,416.32 C0.29,416.32 0.29,384.85 0.29,384.85 C0.31,382.36 1.35,379.98 3.16,378.27 C4.97,376.57 7.4,375.67 9.89,375.8z "/><path id="_R_G_L_4_G_D_16_P_0" fill="#fff" fill-opacity="1" fill-rule="nonzero" d=" M552.72 172.56 C552.72,172.56 542.1,132.2 542.1,132.2 C541.72,130.87 540.68,129.83 539.35,129.45 C539.35,129.45 500.01,119.06 500.01,119.06 C498.68,118.67 497.24,119.06 496.31,120.08 C496.31,120.08 470.11,147.39 470.11,147.39 C470.11,147.39 525.18,203.64 525.18,203.64 C525.18,203.64 551.46,176.34 551.46,176.34 C552.5,175.38 552.97,173.96 552.72,172.56z "/><path id="_R_G_L_4_G_D_17_P_0" fill="#fff" fill-opacity="1" fill-rule="nonzero" d=" M387.96 235.51 C387.96,235.51 398.58,275.79 398.58,275.79 C398.94,277.16 399.99,278.23 401.34,278.63 C401.34,278.63 440.68,289.02 440.68,289.02 C441.98,289.33 443.35,288.94 444.3,287.99 C444.3,287.99 470.58,260.69 470.58,260.69 C470.58,260.69 415.5,204.43 415.5,204.43 C415.5,204.43 389.3,231.73 389.3,231.73 C388.23,232.67 387.72,234.1 387.96,235.51z "/><path id="_R_G_L_4_G_D_18_P_0" fill="#fff" fill-opacity="1" fill-rule="nonzero" d=" M439.89 119.45 C439.89,119.45 400.55,130.47 400.55,130.47 C399.2,130.87 398.16,131.94 397.8,133.3 C397.8,133.3 387.57,173.74 387.57,173.74 C387.25,175.1 387.63,176.52 388.59,177.52 C388.59,177.52 415.11,204.43 415.11,204.43 C415.11,204.43 470.19,147.39 470.19,147.39 C470.19,147.39 443.67,120.48 443.67,120.48 C442.72,119.43 441.24,119.03 439.89,119.45z "/><path id="_R_G_L_4_G_D_19_P_0" fill="#fff" fill-opacity="1" fill-rule="nonzero" d=" M551.62 230.16 C551.62,230.16 525.5,203.64 525.5,203.64 C525.5,203.64 470.42,260.69 470.42,260.69 C470.42,260.69 496.54,287.21 496.54,287.21 C497.75,288.38 499.47,288.86 501.11,288.46 C501.11,288.46 539.35,277.68 539.35,277.68 C541.03,277.24 542.33,275.91 542.73,274.22 C542.73,274.22 552.64,234.88 552.64,234.88 C553.21,233.24 552.82,231.42 551.62,230.16z "/><path id="_R_G_L_4_G_D_20_P_0" fill="#fff" fill-opacity="1" fill-rule="nonzero" d=" M271.04 109.62 C271.04,109.62 278.2,109.62 278.2,109.62 C278.2,109.62 306.13,400.35 306.13,400.35 C306.13,400.35 287.72,400.27 287.72,400.27 C287.72,400.27 271.04,109.62 271.04,109.62z "/></g></g><g id="_R_G_L_3_G_N_1_T_0"><g id="_R_G_L_3_G" transform=" translate(-296.053, 183.115)"><path id="_R_G_L_3_G_D_0_P_0" fill="#292929" fill-opacity="1" fill-rule="nonzero" d=" M0.48 85.15 C1.48,130.73 39.01,166.99 84.59,166.42 C130.18,165.85 166.79,128.65 166.64,83.06 C166.49,37.47 129.63,0.52 84.04,0.25 C61.69,0.37 40.3,9.4 24.62,25.33 C8.94,41.27 0.25,62.79 0.48,85.15z "/><path id="_R_G_L_3_G_D_1_P_0" fill="#fffa" fill-opacity="1" fill-rule="nonzero" d=" M37.54 85.31 C38.19,110.53 59.03,130.53 84.26,130.15 C109.49,129.76 129.71,109.13 129.58,83.9 C129.46,58.66 109.04,38.23 83.81,38.1 C71.39,38.16 59.51,43.18 50.82,52.05 C42.13,60.92 37.35,72.89 37.54,85.31z "/><path id="_R_G_L_3_G_D_2_P_0" fill="#fff" fill-opacity="1" fill-rule="nonzero" d=" M83.21 152.11 C80.91,152.11 78.6,151.99 76.33,151.76 C76.33,151.76 76.63,148.78 76.63,148.78 C79.13,149.03 81.69,149.14 84.23,149.1 C85.6,149.08 86.98,149.01 88.34,148.91 C88.34,148.91 88.57,151.9 88.57,151.9 C87.15,152.01 85.7,152.08 84.27,152.1 C83.92,152.1 83.57,152.11 83.21,152.11z  M100.65 149.85 C100.65,149.85 99.89,146.95 99.89,146.95 C103.66,145.96 107.36,144.61 110.89,142.95 C110.89,142.95 112.17,145.66 112.17,145.66 C108.47,147.4 104.6,148.81 100.65,149.85z  M64.3 149.44 C60.38,148.3 56.54,146.8 52.89,144.98 C52.89,144.98 54.23,142.29 54.23,142.29 C57.72,144.04 61.39,145.47 65.13,146.56 C65.13,146.56 64.3,149.44 64.3,149.44z  M122.74 139.46 C122.74,139.46 120.99,137.02 120.99,137.02 C124.16,134.75 127.15,132.18 129.87,129.38 C129.87,129.38 132.02,131.47 132.02,131.47 C129.18,134.4 126.05,137.09 122.74,139.46z  M42.47 138.54 C39.2,136.09 36.14,133.33 33.37,130.33 C33.37,130.33 35.57,128.29 35.57,128.29 C38.22,131.16 41.15,133.8 44.27,136.14 C44.27,136.14 42.47,138.54 42.47,138.54z  M139.73 121.95 C139.73,121.95 137.24,120.28 137.24,120.28 C139.41,117.03 141.3,113.58 142.86,110 C142.86,110 145.61,111.2 145.61,111.2 C143.98,114.94 142,118.55 139.73,121.95z  M25.88 120.64 C23.68,117.19 21.78,113.53 20.24,109.76 C20.24,109.76 23.03,108.62 23.03,108.62 C24.49,112.23 26.3,115.73 28.41,119.03 C28.41,119.03 25.88,120.64 25.88,120.64z  M149.45 99.56 C149.45,99.56 146.53,98.89 146.53,98.89 C147.41,95.09 147.95,91.19 148.14,87.29 C148.14,87.29 151.13,87.43 151.13,87.43 C150.94,91.51 150.37,95.6 149.45,99.56z  M16.67 98.03 C15.85,94.05 15.37,89.96 15.27,85.87 C15.27,85.87 16.77,85.83 16.77,85.83 C16.77,85.83 15.27,85.86 15.27,85.86 C15.26,85.47 15.26,85.08 15.26,84.69 C15.26,81.82 15.44,78.92 15.8,76.07 C15.8,76.07 18.78,76.44 18.78,76.44 C18.43,79.17 18.26,81.95 18.26,84.69 C18.26,85.06 18.26,85.43 18.27,85.8 C18.37,89.71 18.82,93.62 19.61,97.43 C19.61,97.43 16.67,98.03 16.67,98.03z  M147.66 75.58 C147.15,71.71 146.29,67.87 145.09,64.16 C145.09,64.16 147.95,63.24 147.95,63.24 C149.2,67.12 150.1,71.14 150.63,75.19 C150.63,75.19 147.66,75.58 147.66,75.58z  M21.29 65 C21.29,65 18.43,64.1 18.43,64.1 C19.65,60.21 21.23,56.41 23.14,52.79 C23.14,52.79 25.79,54.19 25.79,54.19 C23.97,57.64 22.46,61.28 21.29,65z  M140.5 53.39 C138.66,49.96 136.48,46.67 134.05,43.61 C134.05,43.61 136.39,41.74 136.39,41.74 C138.94,44.94 141.21,48.38 143.14,51.97 C143.14,51.97 140.5,53.39 140.5,53.39z  M32.15 44.35 C32.15,44.35 29.78,42.5 29.78,42.5 C31.36,40.48 33.07,38.53 34.85,36.71 C35.91,35.63 37.02,34.57 38.16,33.55 C38.16,33.55 40.16,35.79 40.16,35.79 C39.07,36.76 38,37.78 36.99,38.81 C35.28,40.55 33.66,42.42 32.15,44.35z  M125.95 35.15 C123,32.58 119.82,30.27 116.47,28.27 C116.47,28.27 118.01,25.7 118.01,25.7 C121.51,27.78 124.84,30.2 127.92,32.89 C127.92,32.89 125.95,35.15 125.95,35.15z  M49.56 28.8 C49.56,28.8 47.99,26.24 47.99,26.24 C51.47,24.11 55.16,22.28 58.96,20.8 C58.96,20.8 60.05,23.6 60.05,23.6 C56.41,25.01 52.88,26.76 49.56,28.8z  M105.92 23.21 C102.26,21.85 98.46,20.82 94.62,20.13 C94.62,20.13 95.14,17.18 95.14,17.18 C99.16,17.89 103.14,18.97 106.96,20.4 C106.96,20.4 105.92,23.21 105.92,23.21z  M71.3 20.34 C71.3,20.34 70.73,17.4 70.73,17.4 C74.74,16.62 78.84,16.2 82.92,16.15 C82.92,16.15 82.96,19.15 82.96,19.15 C79.06,19.2 75.14,19.6 71.3,20.34z "/></g></g><g id="_R_G_L_2_G_N_1_T_0"><g id="_R_G_L_2_G" transform=" translate(-298.333, 181.154) translate(-83.443, -83.549)"><path id="_R_G_L_2_G_D_0_P_0" fill="#fffa" fill-opacity="1" fill-rule="nonzero" d=" M39.45 97.5 C39.45,97.5 47.32,75.86 79.34,67.29 C111.37,58.71 128.44,73.58 128.44,73.58 C128.44,73.58 127.89,71.38 127.57,70.36 C120.27,47.14 96.06,33.72 72.5,39.83 C48.8,46.43 34.15,70.13 38.82,94.28 C38.98,95.37 39.22,96.45 39.53,97.5 "/></g></g><g id="_R_G_L_1_G_N_1_T_0"><g id="_R_G_L_1_G" transform=" translate(123.503, 183.115)"><path id="_R_G_L_1_G_D_0_P_0" fill="#000" fill-opacity="1" fill-rule="nonzero" d=" M0.48 85.15 C1.48,130.73 39.01,166.99 84.59,166.42 C130.18,165.85 166.79,128.65 166.64,83.06 C166.49,37.47 129.63,0.52 84.04,0.25 C61.69,0.37 40.3,9.4 24.62,25.33 C8.94,41.27 0.25,62.79 0.48,85.15z "/><path id="_R_G_L_1_G_D_1_P_0" fill="#fffa" fill-opacity="1" fill-rule="nonzero" d=" M37.54 85.31 C38.19,110.53 59.03,130.53 84.26,130.15 C109.49,129.76 129.71,109.13 129.58,83.9 C129.46,58.66 109.04,38.23 83.81,38.1 C71.39,38.16 59.51,43.18 50.82,52.05 C42.13,60.92 37.35,72.89 37.54,85.31z "/><path id="_R_G_L_1_G_D_2_P_0" fill="#fff" fill-opacity="1" fill-rule="nonzero" d=" M83.5 152.64 C81.2,152.64 78.88,152.52 76.61,152.29 C76.61,152.29 76.91,149.31 76.91,149.31 C79.42,149.56 81.98,149.67 84.51,149.63 C85.88,149.61 87.27,149.55 88.62,149.44 C88.62,149.44 88.86,152.43 88.86,152.43 C87.44,152.54 85.99,152.61 84.55,152.63 C84.2,152.64 83.85,152.64 83.5,152.64z  M100.93 150.39 C100.93,150.39 100.17,147.49 100.17,147.49 C103.94,146.49 107.64,145.14 111.17,143.48 C111.17,143.48 112.45,146.19 112.45,146.19 C108.76,147.93 104.88,149.34 100.93,150.39z  M64.58 149.97 C60.67,148.83 56.83,147.33 53.17,145.51 C53.17,145.51 54.51,142.82 54.51,142.82 C58,144.57 61.67,146 65.42,147.09 C65.42,147.09 64.58,149.97 64.58,149.97z  M123.02 139.99 C123.02,139.99 121.27,137.55 121.27,137.55 C124.44,135.28 127.43,132.71 130.15,129.91 C130.15,129.91 132.3,132 132.3,132 C129.46,134.93 126.33,137.62 123.02,139.99z  M42.75 139.07 C39.49,136.62 36.43,133.86 33.65,130.87 C33.65,130.87 35.85,128.83 35.85,128.83 C38.5,131.69 41.43,134.33 44.55,136.67 C44.55,136.67 42.75,139.07 42.75,139.07z  M140.01 122.48 C140.01,122.48 137.52,120.81 137.52,120.81 C139.7,117.56 141.58,114.11 143.14,110.53 C143.14,110.53 145.89,111.73 145.89,111.73 C144.26,115.47 142.29,119.09 140.01,122.48z  M26.16 121.17 C23.96,117.73 22.07,114.06 20.53,110.29 C20.53,110.29 23.31,109.16 23.31,109.16 C24.78,112.77 26.59,116.26 28.69,119.56 C28.69,119.56 26.16,121.17 26.16,121.17z  M149.74 100.1 C149.74,100.1 146.81,99.42 146.81,99.42 C147.69,95.63 148.23,91.72 148.42,87.82 C148.42,87.82 151.42,87.96 151.42,87.96 C151.22,92.05 150.66,96.13 149.74,100.1z  M16.96 98.57 C16.13,94.59 15.66,90.49 15.55,86.4 C15.55,86.4 17.05,86.36 17.05,86.36 C17.05,86.36 15.55,86.39 15.55,86.39 C15.54,86 15.54,85.61 15.54,85.23 C15.54,82.35 15.72,79.45 16.09,76.6 C16.09,76.6 19.06,76.98 19.06,76.98 C18.72,79.7 18.54,82.48 18.54,85.22 C18.54,85.59 18.54,85.96 18.55,86.33 C18.65,90.24 19.1,94.15 19.89,97.96 C19.89,97.96 16.96,98.57 16.96,98.57z  M147.94 76.12 C147.43,72.24 146.57,68.4 145.37,64.69 C145.37,64.69 148.23,63.77 148.23,63.77 C149.48,67.65 150.39,71.67 150.92,75.73 C150.92,75.73 147.94,76.12 147.94,76.12z  M21.57 65.53 C21.57,65.53 18.71,64.63 18.71,64.63 C19.93,60.74 21.52,56.94 23.42,53.32 C23.42,53.32 26.07,54.72 26.07,54.72 C24.26,58.18 22.74,61.81 21.57,65.53z  M140.78 53.92 C138.94,50.49 136.77,47.2 134.33,44.15 C134.33,44.15 136.67,42.27 136.67,42.27 C139.22,45.47 141.49,48.91 143.43,52.5 C143.43,52.5 140.78,53.92 140.78,53.92z  M32.43 44.88 C32.43,44.88 30.07,43.03 30.07,43.03 C31.64,41.01 33.35,39.07 35.13,37.24 C36.19,36.16 37.31,35.1 38.44,34.09 C38.44,34.09 40.44,36.32 40.44,36.32 C39.35,37.29 38.29,38.31 37.28,39.34 C35.57,41.09 33.94,42.95 32.43,44.88z  M126.23 35.68 C123.29,33.11 120.1,30.8 116.75,28.8 C116.75,28.8 118.29,26.23 118.29,26.23 C121.79,28.31 125.12,30.74 128.2,33.42 C128.2,33.42 126.23,35.68 126.23,35.68z  M49.84 29.34 C49.84,29.34 48.27,26.78 48.27,26.78 C51.75,24.65 55.44,22.81 59.25,21.33 C59.25,21.33 60.33,24.13 60.33,24.13 C56.7,25.55 53.17,27.3 49.84,29.34z  M106.2 23.74 C102.55,22.38 98.75,21.35 94.9,20.67 C94.9,20.67 95.43,17.71 95.43,17.71 C99.45,18.42 103.42,19.51 107.25,20.93 C107.25,20.93 106.2,23.74 106.2,23.74z  M71.59 20.88 C71.59,20.88 71.02,17.93 71.02,17.93 C75.02,17.15 79.12,16.73 83.2,16.68 C83.2,16.68 83.24,19.68 83.24,19.68 C79.34,19.73 75.42,20.13 71.59,20.88z "/></g></g><g id="_R_G_L_0_G_N_1_T_0"><g id="_R_G_L_0_G" transform=" translate(123.503, 183.115) translate(-83.52, -83.621)"><path id="_R_G_L_0_G_D_0_P_0" fill="#fffa" fill-opacity="1" fill-rule="nonzero" d=" M39.04 97.5 C39.04,97.5 46.9,75.86 78.93,67.29 C110.95,58.71 128.03,73.58 128.03,73.58 C128.03,73.58 127.47,71.38 127.08,70.36 C119.81,47.11 95.57,33.68 72,39.83 C48.34,46.46 33.72,70.15 38.41,94.28 C38.57,95.36 38.81,96.44 39.12,97.5 "/></g></g></g><g id="time_group"/></svg>