<svg width="34" height="51" viewBox="0 0 34 51" fill="none" xmlns="http://www.w3.org/2000/svg">
<g id="Group">
<g id="Icon/Fulfillment/OrderPickupHub/184px">
<path id="Path" d="M21.6083 0V8.39432H12.3917V0L8.97847 3.30284V8.39432H0V51H4.94786V39.5962H8.21115V51H9.71933V39.5962H16.2459V51H17.7894V39.5962H24.316V51H25.7977V39.5962H29.0521V51H34V8.39432H25.0215V3.30284L21.6083 0Z" fill="#0054E2"/>
<path id="Path_2" d="M12.4897 3.49315H21.5102V0H12.4897V3.49315Z" fill="#0054E2"/>
<path id="Shape" fill-rule="evenodd" clip-rule="evenodd" d="M16.9953 33.5342C14.0363 33.5342 11.5748 33.8762 9.66432 34.294V37.979H24.3353V34.275C22.4248 33.8667 19.9633 33.5342 16.9953 33.5342ZM25.8548 34.6549V37.979H29.1426V35.8421C29.1394 35.8407 29.1305 35.8364 29.116 35.8292C28.9296 35.7379 27.8166 35.1923 25.8548 34.6549ZM4.85693 35.8896V37.979H8.1359V34.6739C5.99435 35.2723 4.85693 35.8896 4.85693 35.8896ZM4.85693 51H8.1359V39.6221H4.85693V51ZM25.8548 51H29.1426V39.6221H25.8548V51ZM17.7862 51H24.3619V39.6221H17.7862V51ZM9.66432 51H16.24V39.6221H9.66432V51Z" fill="#D6D6D6"/>
<path id="Shape_2" fill-rule="evenodd" clip-rule="evenodd" d="M12.8639 42.6165C12.2756 42.6165 11.7959 43.0871 11.7959 43.6644C11.7959 44.2417 12.2756 44.7123 12.8639 44.7123C13.4522 44.7123 13.9228 44.2417 13.9228 43.6644C13.9228 43.0871 13.4522 42.6165 12.8639 42.6165ZM21.1361 42.6165C20.5478 42.6165 20.0681 43.0871 20.0681 43.6644C20.0681 44.2417 20.5478 44.7123 21.1361 44.7123C21.7244 44.7123 22.2041 44.2417 22.2041 43.6644C22.2041 43.0871 21.7244 42.6165 21.1361 42.6165Z" fill="#888888"/>
<path id="Path_3" opacity="0.1" d="M16.9953 32.137C9.15781 32.137 4.85693 34.6139 4.85693 34.6139V36.3287C4.85693 36.3287 9.15781 33.8418 16.9953 33.8418C24.824 33.8418 29.1426 36.2786 29.1426 36.2786V34.5738C29.1426 34.5738 24.824 32.137 16.9953 32.137" fill="black"/>
</g>
<g id="g18 Clipped">
<mask id="mask0_0_4728" style="mask-type:luminance" maskUnits="userSpaceOnUse" x="11" y="16" width="11" height="12">
<rect id="rect42" x="11.7959" y="16.0685" width="9.71429" height="11.1781" fill="white"/>
</mask>
<g mask="url(#mask0_0_4728)">
<g id="g18">
<path id="path6" d="M18.6521 21.1613C18.8805 21.1133 20.8997 20.1688 21.0799 20.0626C21.4914 19.8201 21.6323 19.283 21.3948 18.8631C21.1571 18.4431 20.6309 18.2991 20.2196 18.5416C20.0392 18.6479 18.2283 19.9607 18.0737 20.1384C17.8962 20.3423 17.8656 20.6337 17.9969 20.8656C18.1281 21.0976 18.3906 21.2162 18.6521 21.1613Z" fill="#FFC220"/>
<path id="path8" d="M21.0799 23.2524C20.8996 23.1464 18.8803 22.2017 18.6521 22.1539C18.3906 22.0988 18.1281 22.2174 17.9969 22.4495C17.8656 22.6815 17.8962 22.9731 18.0737 23.1766C18.2283 23.3544 20.0394 24.6674 20.2196 24.7734C20.631 25.0161 21.1573 24.872 21.3948 24.4521C21.6323 24.0321 21.4912 23.4949 21.0799 23.2524Z" fill="#FFC220"/>
<path id="path10" d="M16.6533 23.2415C16.3908 23.2415 16.1588 23.4143 16.0747 23.6729C16.0014 23.8988 15.793 26.1559 15.793 26.3684C15.793 26.8532 16.1781 27.2466 16.6533 27.2466C17.1286 27.2466 17.5137 26.8534 17.5137 26.3684C17.5137 26.1559 17.3053 23.8986 17.2318 23.6729C17.1476 23.4141 16.9158 23.2415 16.6533 23.2415V23.2415Z" fill="#FFC220"/>
<path id="path12" d="M14.6538 22.154C14.4258 22.2018 12.4062 23.1462 12.2262 23.2525C11.8146 23.4952 11.6738 24.0323 11.9113 24.4522C12.1489 24.8722 12.6751 25.0162 13.0866 24.7735C13.2667 24.6672 15.0776 23.3544 15.2325 23.1767C15.4099 22.9728 15.4405 22.6816 15.3093 22.4495C15.178 22.2176 14.9154 22.0989 14.6538 22.154V22.154Z" fill="#FFC220"/>
<path id="path14" d="M13.0864 18.5416C12.6749 18.2991 12.1487 18.4431 11.9114 18.8631C11.6737 19.2832 11.8148 19.8203 12.2261 20.0626C12.4064 20.1688 14.4257 21.1133 14.6539 21.1613C14.9154 21.2162 15.1781 21.0978 15.3093 20.8656C15.4406 20.6337 15.4098 20.3421 15.2325 20.1384C15.0776 19.9607 13.2668 18.6479 13.0864 18.5416Z" fill="#FFC220"/>
<path id="path16" d="M16.6533 16.0685C16.1782 16.0685 15.793 16.4616 15.793 16.9467C15.793 17.1591 16.0014 19.4165 16.0747 19.6424C16.1588 19.9011 16.3908 20.0738 16.6533 20.0738C16.9158 20.0738 17.1476 19.9009 17.2318 19.6424C17.3053 19.4165 17.5137 17.1593 17.5137 16.9467C17.5137 16.4618 17.1286 16.0685 16.6533 16.0685V16.0685Z" fill="#FFC220"/>
</g>
</g>
</g>
</g>
</svg>
