<svg xmlns="http://www.w3.org/2000/svg" xmlns:xlink="http://www.w3.org/1999/xlink" preserveAspectRatio="xMidYMid meet" width="1143" height="592" viewBox="0 0 1143 592" style="width:100%;height:100%"><defs><animateMotion repeatCount="indefinite" dur="2.9833333s" begin="0s" xlink:href="#_R_G_L_9_G_L_2_G_N_4_T_0" fill="freeze" keyTimes="0;1" path="M2190 304.5 C2190,304.5 2190,304.5 2190,304.5 " keyPoints="0;1" keySplines="0 0 0 0" calcMode="spline"/><animateMotion repeatCount="indefinite" dur="2.9833333s" begin="0s" xlink:href="#_R_G_L_9_G_L_1_G_N_4_T_0" fill="freeze" keyTimes="0;1" path="M2190 304.5 C2190,304.5 2190,304.5 2190,304.5 " keyPoints="0;1" keySplines="0 0 0 0" calcMode="spline"/><animateMotion repeatCount="indefinite" dur="2.9833333s" begin="0s" xlink:href="#_R_G_L_9_G_L_0_G_N_4_T_0" fill="freeze" keyTimes="0;1" path="M2190 304.5 C2190,304.5 2190,304.5 2190,304.5 " keyPoints="0;1" keySplines="0 0 0 0" calcMode="spline"/><animateMotion repeatCount="indefinite" dur="2.9833333s" begin="0s" xlink:href="#_R_G_L_8_G_L_2_G_N_4_T_0" fill="freeze" keyTimes="0;1" path="M2190 304.5 C2190,304.5 2190,304.5 2190,304.5 " keyPoints="0;1" keySplines="0 0 0 0" calcMode="spline"/><animateMotion repeatCount="indefinite" dur="2.9833333s" begin="0s" xlink:href="#_R_G_L_8_G_L_1_G_N_4_T_0" fill="freeze" keyTimes="0;1" path="M2190 304.5 C2190,304.5 2190,304.5 2190,304.5 " keyPoints="0;1" keySplines="0 0 0 0" calcMode="spline"/><animateMotion repeatCount="indefinite" dur="2.9833333s" begin="0s" xlink:href="#_R_G_L_8_G_L_0_G_N_4_T_0" fill="freeze" keyTimes="0;1" path="M2190 304.5 C2190,304.5 2190,304.5 2190,304.5 " keyPoints="0;1" keySplines="0 0 0 0" calcMode="spline"/><clipPath id="_R_G_L_7_C_0"><path id="_R_G_L_7_C_0_P_0" fill-rule="nonzero" d="M898.77 120.89 C898.77,120.89 891.65,124.84 891.65,130.76 C891.65,139.46 899.56,141.83 899.56,141.83 C899.56,141.83 1067.06,141.83 1067.06,141.83 C1067.06,141.83 1074.17,141.04 1074.57,131.95 C1074.96,122.87 1067.06,121.28 1067.06,121.28 C1067.06,121.28 898.77,120.89 898.77,120.89z "/></clipPath><animateMotion repeatCount="indefinite" dur="2.9833333s" begin="0s" xlink:href="#_R_G_L_7_G_G_0_L_1_G" fill="freeze" keyTimes="0;0.3351955;1" path="M651.49 132.21 C651.49,132.21 1291.48,132.21 1291.48,132.21 C1291.48,132.21 1291.48,132.21 1291.48,132.21 " keyPoints="0;1;1" keySplines="0.84 0 0.16 1;0 0 0 0" calcMode="spline"/><animateTransform repeatCount="indefinite" dur="2.9833333s" begin="0s" xlink:href="#_R_G_L_7_G_G_0_L_1_G" fill="freeze" attributeName="transform" from="251.107 185.745" to="251.107 185.745" type="translate" additive="sum" keyTimes="0;1" values="251.107 185.745;251.107 185.745" keySplines="0 0 1 1" calcMode="spline"/><animate repeatCount="indefinite" dur="2.9833333s" begin="0s" xlink:href="#_R_G_L_7_G_G_0_L_1_G_M" fill="freeze" attributeName="opacity" from="1" to="0" keyTimes="0;0.3407821;0.3407821;1" values="1;1;0;0" keySplines="0 0 0 0;0 0 0 0;0 0 0 0" calcMode="spline"/><animateMotion repeatCount="indefinite" dur="2.9833333s" begin="0s" xlink:href="#_R_G_L_7_G_G_0_L_0_G" fill="freeze" keyTimes="0;0.5027933;0.8379888;1" path="M651.49 132.21 C651.49,132.21 651.49,132.21 651.49,132.21 C651.49,132.21 1291.48,132.21 1291.48,132.21 C1291.48,132.21 1291.48,132.21 1291.48,132.21 " keyPoints="0;0;1;1" keySplines="0.84 0 0.16 1;0.84 0 0.16 1;0 0 0 0" calcMode="spline"/><animateTransform repeatCount="indefinite" dur="2.9833333s" begin="0s" xlink:href="#_R_G_L_7_G_G_0_L_0_G" fill="freeze" attributeName="transform" from="251.107 185.745" to="251.107 185.745" type="translate" additive="sum" keyTimes="0;1" values="251.107 185.745;251.107 185.745" keySplines="0 0 1 1" calcMode="spline"/><animate repeatCount="indefinite" dur="2.9833333s" begin="0s" xlink:href="#_R_G_L_7_G_G_0_L_0_G_M" fill="freeze" attributeName="opacity" from="0" to="0" keyTimes="0;0.5027933;0.5027939;0.8435754;0.8435754;1" values="0;0;1;1;0;0" keySplines="0 0 0 0;0 0 0 0;0 0 0 0;0 0 0 0;0 0 0 0" calcMode="spline"/><animateMotion repeatCount="indefinite" dur="2.9833333s" begin="0s" xlink:href="#_R_G_L_7_G_N_6_T_0" fill="freeze" keyTimes="0;0.0837989;0.1675978;0.2513966;0.3351955;0.4189944;0.5027933;0.5865922;0.6703911;0.7541899;0.8379888;0.9217877;1" path="M-0.32 -33.31 C-0.32,-33.31 -0.32,-40.31 -0.32,-40.31 C-0.32,-40.31 -0.32,-33.31 -0.32,-33.31 C-0.32,-33.31 -0.32,-40.31 -0.32,-40.31 C-0.32,-40.31 -0.32,-33.31 -0.32,-33.31 C-0.32,-33.31 -0.32,-40.31 -0.32,-40.31 C-0.32,-40.31 -0.32,-33.31 -0.32,-33.31 C-0.32,-33.31 -0.32,-40.31 -0.32,-40.31 C-0.32,-40.31 -0.32,-33.31 -0.32,-33.31 C-0.32,-33.31 -0.32,-40.31 -0.32,-40.31 C-0.32,-40.31 -0.32,-33.31 -0.32,-33.31 C-0.32,-33.31 -0.32,-40.31 -0.32,-40.31 C-0.32,-40.31 -0.32,-40.31 -0.32,-40.31 " keyPoints="0;0.09;0.18;0.27;0.36;0.45;0.55;0.64;0.73;0.82;0.91;1;1" keySplines="0.333 0 0.667 1;0.333 0 0.667 1;0.333 0 0.667 1;0.333 0 0.667 1;0.333 0 0.667 1;0.333 0 0.667 1;0.333 0 0.667 1;0.333 0 0.667 1;0.333 0 0.667 1;0.333 0 0.667 1;0.333 0 0.667 1;0 0 0 0" calcMode="spline"/><animateTransform repeatCount="indefinite" dur="2.9833333s" begin="0s" xlink:href="#_R_G_L_7_G_N_6_T_0" fill="freeze" attributeName="transform" from="-444.138 -224.958" to="-444.138 -224.958" type="translate" additive="sum" keyTimes="0;1" values="-444.138 -224.958;-444.138 -224.958" keySplines="0 0 1 1" calcMode="spline"/><animateMotion repeatCount="indefinite" dur="2.9833333s" begin="0s" xlink:href="#_R_G_L_7_G_N_6_N_1_T_0" fill="freeze" keyTimes="0;0.5027933;0.9944134;1" path="M661.5 317 C661.5,317 651.5,317 651.5,317 C651.5,317 661.5,317 661.5,317 C661.5,317 661.5,317 661.5,317 " keyPoints="0;0.5;1;1" keySplines="0.333 0 0.667 1;0.333 0 0.667 1;0 0 0 0" calcMode="spline"/><clipPath id="_R_G_L_6_C_0"><path id="_R_G_L_6_C_0_P_0" fill-rule="nonzero" d="M898.77 120.89 C898.77,120.89 891.65,124.84 891.65,130.76 C891.65,139.46 899.56,141.83 899.56,141.83 C899.56,141.83 1067.06,141.83 1067.06,141.83 C1067.06,141.83 1074.17,141.04 1074.57,131.95 C1074.96,122.87 1067.06,121.28 1067.06,121.28 C1067.06,121.28 898.77,120.89 898.77,120.89z "/></clipPath><animateMotion repeatCount="indefinite" dur="2.9833333s" begin="0s" xlink:href="#_R_G_L_6_G_G_0_L_1_G" fill="freeze" keyTimes="0;0.1620112;0.4972067;1" path="M651.49 132.21 C651.49,132.21 651.49,132.21 651.49,132.21 C651.49,132.21 1291.48,132.21 1291.48,132.21 C1291.48,132.21 1291.48,132.21 1291.48,132.21 " keyPoints="0;0;1;1" keySplines="0.84 0 0.16 1;0.84 0 0.16 1;0 0 0 0" calcMode="spline"/><animateTransform repeatCount="indefinite" dur="2.9833333s" begin="0s" xlink:href="#_R_G_L_6_G_G_0_L_1_G" fill="freeze" attributeName="transform" from="251.107 185.745" to="251.107 185.745" type="translate" additive="sum" keyTimes="0;0.1620112;1" values="251.107 185.745;251.107 185.745;251.107 185.745" keySplines="0 0 1 1;0 0 0 0" calcMode="spline"/><animate repeatCount="indefinite" dur="2.9833333s" begin="0s" xlink:href="#_R_G_L_6_G_G_0_L_1_G_M" fill="freeze" attributeName="opacity" from="0" to="0" keyTimes="0;0.1620112;0.1620112;0.1620117;0.5027933;0.5027933;1" values="0;0;0;1;1;0;0" keySplines="0 0 0 0;0 0 0 0;0 0 0 0;0 0 0 0;0 0 0 0;0 0 0 0" calcMode="spline"/><animateMotion repeatCount="indefinite" dur="2.9833333s" begin="0s" xlink:href="#_R_G_L_6_G_G_0_L_0_G" fill="freeze" keyTimes="0;0.1620112;0.6648045;1" path="M651.49 132.21 C651.49,132.21 651.49,132.21 651.49,132.21 C651.49,132.21 651.49,132.21 651.49,132.21 C651.49,132.21 1291.48,132.21 1291.48,132.21 " keyPoints="0;0;0;1" keySplines="0.84 0 0.16 1;0.84 0 0.16 1;0.84 0 0.16 1" calcMode="spline"/><animateTransform repeatCount="indefinite" dur="2.9833333s" begin="0s" xlink:href="#_R_G_L_6_G_G_0_L_0_G" fill="freeze" attributeName="transform" from="251.107 185.745" to="251.107 185.745" type="translate" additive="sum" keyTimes="0;0.1620112;1" values="251.107 185.745;251.107 185.745;251.107 185.745" keySplines="0 0 1 1;0 0 0 0" calcMode="spline"/><animate repeatCount="indefinite" dur="2.9833333s" begin="0s" xlink:href="#_R_G_L_6_G_G_0_L_0_G_M" fill="freeze" attributeName="opacity" from="0" to="1" keyTimes="0;0.1620112;0.6648045;0.664805;1" values="0;0;0;1;1" keySplines="0 0 0 0;0 0 0 0;0 0 0 0;0 0 0 0" calcMode="spline"/><animateMotion repeatCount="indefinite" dur="2.9833333s" begin="0s" xlink:href="#_R_G_L_6_G_N_6_T_0" fill="freeze" keyTimes="0;0.0837989;0.1675978;0.2513966;0.3351955;0.4189944;0.5027933;0.5865922;0.6703911;0.7541899;0.8379888;0.9217877;1" path="M-0.32 -33.31 C-0.32,-33.31 -0.32,-40.31 -0.32,-40.31 C-0.32,-40.31 -0.32,-33.31 -0.32,-33.31 C-0.32,-33.31 -0.32,-40.31 -0.32,-40.31 C-0.32,-40.31 -0.32,-33.31 -0.32,-33.31 C-0.32,-33.31 -0.32,-40.31 -0.32,-40.31 C-0.32,-40.31 -0.32,-33.31 -0.32,-33.31 C-0.32,-33.31 -0.32,-40.31 -0.32,-40.31 C-0.32,-40.31 -0.32,-33.31 -0.32,-33.31 C-0.32,-33.31 -0.32,-40.31 -0.32,-40.31 C-0.32,-40.31 -0.32,-33.31 -0.32,-33.31 C-0.32,-33.31 -0.32,-40.31 -0.32,-40.31 C-0.32,-40.31 -0.32,-40.31 -0.32,-40.31 " keyPoints="0;0.09;0.18;0.27;0.36;0.45;0.55;0.64;0.73;0.82;0.91;1;1" keySplines="0.333 0 0.667 1;0.333 0 0.667 1;0.333 0 0.667 1;0.333 0 0.667 1;0.333 0 0.667 1;0.333 0 0.667 1;0.333 0 0.667 1;0.333 0 0.667 1;0.333 0 0.667 1;0.333 0 0.667 1;0.333 0 0.667 1;0 0 0 0" calcMode="spline"/><animateTransform repeatCount="indefinite" dur="2.9833333s" begin="0s" xlink:href="#_R_G_L_6_G_N_6_T_0" fill="freeze" attributeName="transform" from="-444.138 -224.958" to="-444.138 -224.958" type="translate" additive="sum" keyTimes="0;1" values="-444.138 -224.958;-444.138 -224.958" keySplines="0 0 1 1" calcMode="spline"/><animateMotion repeatCount="indefinite" dur="2.9833333s" begin="0s" xlink:href="#_R_G_L_6_G_N_6_N_1_T_0" fill="freeze" keyTimes="0;0.5027933;0.9944134;1" path="M661.5 317 C661.5,317 651.5,317 651.5,317 C651.5,317 661.5,317 661.5,317 C661.5,317 661.5,317 661.5,317 " keyPoints="0;0.5;1;1" keySplines="0.333 0 0.667 1;0.333 0 0.667 1;0 0 0 0" calcMode="spline"/><animate repeatCount="indefinite" dur="2.9833333s" begin="0s" xlink:href="#_R_G_L_6_G_N_6_N_1_T_0_M" fill="freeze" attributeName="opacity" from="0" to="1" keyTimes="0;0.1620112;0.1620117;1" values="0;0;1;1" keySplines="0 0 0 0;0 0 0 0;0 0 0 0" calcMode="spline"/><clipPath id="_R_G_L_5_C_0"><path id="_R_G_L_5_C_0_P_0" fill-rule="nonzero" d="M898.77 120.89 C898.77,120.89 891.65,124.84 891.65,130.76 C891.65,139.46 899.56,141.83 899.56,141.83 C899.56,141.83 1067.06,141.83 1067.06,141.83 C1067.06,141.83 1074.17,141.04 1074.57,131.95 C1074.96,122.87 1067.06,121.28 1067.06,121.28 C1067.06,121.28 898.77,120.89 898.77,120.89z "/></clipPath><animateMotion repeatCount="indefinite" dur="2.9833333s" begin="0s" xlink:href="#_R_G_L_5_G_G_0_L_1_G" fill="freeze" keyTimes="0;0.4134078;0.7486034;1" path="M651.49 132.21 C651.49,132.21 651.49,132.21 651.49,132.21 C651.49,132.21 1291.48,132.21 1291.48,132.21 C1291.48,132.21 1291.48,132.21 1291.48,132.21 " keyPoints="0;0;1;1" keySplines="0.84 0 0.16 1;0.84 0 0.16 1;0 0 0 0" calcMode="spline"/><animateTransform repeatCount="indefinite" dur="2.9833333s" begin="0s" xlink:href="#_R_G_L_5_G_G_0_L_1_G" fill="freeze" attributeName="transform" from="251.107 185.745" to="251.107 185.745" type="translate" additive="sum" keyTimes="0;0.4134078;1" values="251.107 185.745;251.107 185.745;251.107 185.745" keySplines="0 0 1 1;0 0 0 0" calcMode="spline"/><animate repeatCount="indefinite" dur="2.9833333s" begin="0s" xlink:href="#_R_G_L_5_G_G_0_L_1_G_M" fill="freeze" attributeName="opacity" from="0" to="0" keyTimes="0;0.4134078;0.4134078;0.4134084;0.7541899;0.7541899;1" values="0;0;0;1;1;0;0" keySplines="0 0 0 0;0 0 0 0;0 0 0 0;0 0 0 0;0 0 0 0;0 0 0 0" calcMode="spline"/><animateMotion repeatCount="indefinite" dur="2.9833333s" begin="0s" xlink:href="#_R_G_L_5_G_G_0_L_0_G" fill="freeze" keyTimes="0;0.4134078;0.9162011;1" path="M651.49 132.21 C651.49,132.21 651.49,132.21 651.49,132.21 C651.49,132.21 651.49,132.21 651.49,132.21 C651.49,132.21 651.49,132.21 651.49,132.21 " keyPoints="0;NaN;NaN;1" keySplines="0.84 0 0.16 1;0.84 0 0.16 1;0 0 0 0" calcMode="spline"/><animateTransform repeatCount="indefinite" dur="2.9833333s" begin="0s" xlink:href="#_R_G_L_5_G_G_0_L_0_G" fill="freeze" attributeName="transform" from="251.107 185.745" to="251.107 185.745" type="translate" additive="sum" keyTimes="0;0.4134078;1" values="251.107 185.745;251.107 185.745;251.107 185.745" keySplines="0 0 1 1;0 0 0 0" calcMode="spline"/><animate repeatCount="indefinite" dur="2.9833333s" begin="0s" xlink:href="#_R_G_L_5_G_G_0_L_0_G_M" fill="freeze" attributeName="opacity" from="0" to="1" keyTimes="0;0.4134078;0.9162011;0.9162017;1" values="0;0;0;1;1" keySplines="0 0 0 0;0 0 0 0;0 0 0 0;0 0 0 0" calcMode="spline"/><animateMotion repeatCount="indefinite" dur="2.9833333s" begin="0s" xlink:href="#_R_G_L_5_G_N_6_T_0" fill="freeze" keyTimes="0;0.0837989;0.1675978;0.2513966;0.3351955;0.4189944;0.5027933;0.5865922;0.6703911;0.7541899;0.8379888;0.9217877;1" path="M-0.32 -33.31 C-0.32,-33.31 -0.32,-40.31 -0.32,-40.31 C-0.32,-40.31 -0.32,-33.31 -0.32,-33.31 C-0.32,-33.31 -0.32,-40.31 -0.32,-40.31 C-0.32,-40.31 -0.32,-33.31 -0.32,-33.31 C-0.32,-33.31 -0.32,-40.31 -0.32,-40.31 C-0.32,-40.31 -0.32,-33.31 -0.32,-33.31 C-0.32,-33.31 -0.32,-40.31 -0.32,-40.31 C-0.32,-40.31 -0.32,-33.31 -0.32,-33.31 C-0.32,-33.31 -0.32,-40.31 -0.32,-40.31 C-0.32,-40.31 -0.32,-33.31 -0.32,-33.31 C-0.32,-33.31 -0.32,-40.31 -0.32,-40.31 C-0.32,-40.31 -0.32,-40.31 -0.32,-40.31 " keyPoints="0;0.09;0.18;0.27;0.36;0.45;0.55;0.64;0.73;0.82;0.91;1;1" keySplines="0.333 0 0.667 1;0.333 0 0.667 1;0.333 0 0.667 1;0.333 0 0.667 1;0.333 0 0.667 1;0.333 0 0.667 1;0.333 0 0.667 1;0.333 0 0.667 1;0.333 0 0.667 1;0.333 0 0.667 1;0.333 0 0.667 1;0 0 0 0" calcMode="spline"/><animateTransform repeatCount="indefinite" dur="2.9833333s" begin="0s" xlink:href="#_R_G_L_5_G_N_6_T_0" fill="freeze" attributeName="transform" from="-444.138 -224.958" to="-444.138 -224.958" type="translate" additive="sum" keyTimes="0;1" values="-444.138 -224.958;-444.138 -224.958" keySplines="0 0 1 1" calcMode="spline"/><animateMotion repeatCount="indefinite" dur="2.9833333s" begin="0s" xlink:href="#_R_G_L_5_G_N_6_N_1_T_0" fill="freeze" keyTimes="0;0.5027933;0.9944134;1" path="M661.5 317 C661.5,317 651.5,317 651.5,317 C651.5,317 661.5,317 661.5,317 C661.5,317 661.5,317 661.5,317 " keyPoints="0;0.5;1;1" keySplines="0.333 0 0.667 1;0.333 0 0.667 1;0 0 0 0" calcMode="spline"/><animate repeatCount="indefinite" dur="2.9833333s" begin="0s" xlink:href="#_R_G_L_5_G_N_6_N_1_T_0_M" fill="freeze" attributeName="opacity" from="0" to="1" keyTimes="0;0.4134078;0.4134084;1" values="0;0;1;1" keySplines="0 0 0 0;0 0 0 0;0 0 0 0" calcMode="spline"/><animateMotion repeatCount="indefinite" dur="2.9833333s" begin="0s" xlink:href="#_R_G_L_4_G" fill="freeze" keyTimes="0;0.0837989;0.1675978;0.2513966;0.3351955;0.4189944;0.5027933;0.5865922;0.6703911;0.7541899;0.8379888;0.9217877;1" path="M-0.32 -33.31 C-0.32,-33.31 -0.32,-40.31 -0.32,-40.31 C-0.32,-40.31 -0.32,-33.31 -0.32,-33.31 C-0.32,-33.31 -0.32,-40.31 -0.32,-40.31 C-0.32,-40.31 -0.32,-33.31 -0.32,-33.31 C-0.32,-33.31 -0.32,-40.31 -0.32,-40.31 C-0.32,-40.31 -0.32,-33.31 -0.32,-33.31 C-0.32,-33.31 -0.32,-40.31 -0.32,-40.31 C-0.32,-40.31 -0.32,-33.31 -0.32,-33.31 C-0.32,-33.31 -0.32,-40.31 -0.32,-40.31 C-0.32,-40.31 -0.32,-33.31 -0.32,-33.31 C-0.32,-33.31 -0.32,-40.31 -0.32,-40.31 C-0.32,-40.31 -0.32,-40.31 -0.32,-40.31 " keyPoints="0;0.09;0.18;0.27;0.36;0.45;0.55;0.64;0.73;0.82;0.91;1;1" keySplines="0.333 0 0.667 1;0.333 0 0.667 1;0.333 0 0.667 1;0.333 0 0.667 1;0.333 0 0.667 1;0.333 0 0.667 1;0.333 0 0.667 1;0.333 0 0.667 1;0.333 0 0.667 1;0.333 0 0.667 1;0.333 0 0.667 1;0 0 0 0" calcMode="spline"/><animateTransform repeatCount="indefinite" dur="2.9833333s" begin="0s" xlink:href="#_R_G_L_4_G" fill="freeze" attributeName="transform" from="-444.138 -224.958" to="-444.138 -224.958" type="translate" additive="sum" keyTimes="0;1" values="-444.138 -224.958;-444.138 -224.958" keySplines="0 0 1 1" calcMode="spline"/><animateMotion repeatCount="indefinite" dur="2.9833333s" begin="0s" xlink:href="#_R_G_L_4_G_N_1_T_0" fill="freeze" keyTimes="0;0.5027933;0.9944134;1" path="M661.5 317 C661.5,317 651.5,317 651.5,317 C651.5,317 661.5,317 661.5,317 C661.5,317 661.5,317 661.5,317 " keyPoints="0;0.5;1;1" keySplines="0.333 0 0.667 1;0.333 0 0.667 1;0 0 0 0" calcMode="spline"/><animateMotion repeatCount="indefinite" dur="2.9833333s" begin="0s" xlink:href="#_R_G_L_3_G_N_1_T_0" fill="freeze" keyTimes="0;0.5027933;0.9944134;1" path="M661.5 317 C661.5,317 651.5,317 651.5,317 C651.5,317 661.5,317 661.5,317 C661.5,317 661.5,317 661.5,317 " keyPoints="0;0.5;1;1" keySplines="0.333 0 0.667 1;0.333 0 0.667 1;0 0 0 0" calcMode="spline"/><animateTransform repeatCount="indefinite" dur="2.9833333s" begin="0s" xlink:href="#_R_G_L_2_G" fill="freeze" attributeName="transform" from="0" to="360" type="rotate" additive="sum" keyTimes="0;0.9944134;1" values="0;360;360" keySplines="0.167 0.167 0.833 0.833;0 0 0 0" calcMode="spline"/><animateTransform repeatCount="indefinite" dur="2.9833333s" begin="0s" xlink:href="#_R_G_L_2_G" fill="freeze" attributeName="transform" from="-79.928 -79.928" to="-79.928 -79.928" type="translate" additive="sum" keyTimes="0;1" values="-79.928 -79.928;-79.928 -79.928" keySplines="0 0 1 1" calcMode="spline"/><animateMotion repeatCount="indefinite" dur="2.9833333s" begin="0s" xlink:href="#_R_G_L_2_G_N_1_T_0" fill="freeze" keyTimes="0;0.5027933;0.9944134;1" path="M661.5 317 C661.5,317 651.5,317 651.5,317 C651.5,317 661.5,317 661.5,317 C661.5,317 661.5,317 661.5,317 " keyPoints="0;0.5;1;1" keySplines="0.333 0 0.667 1;0.333 0 0.667 1;0 0 0 0" calcMode="spline"/><animateMotion repeatCount="indefinite" dur="2.9833333s" begin="0s" xlink:href="#_R_G_L_1_G_N_1_T_0" fill="freeze" keyTimes="0;0.5027933;0.9944134;1" path="M661.5 317 C661.5,317 651.5,317 651.5,317 C651.5,317 661.5,317 661.5,317 C661.5,317 661.5,317 661.5,317 " keyPoints="0;0.5;1;1" keySplines="0.333 0 0.667 1;0.333 0 0.667 1;0 0 0 0" calcMode="spline"/><animateTransform repeatCount="indefinite" dur="2.9833333s" begin="0s" xlink:href="#_R_G_L_0_G" fill="freeze" attributeName="transform" from="0" to="440" type="rotate" additive="sum" keyTimes="0;0.9944134;1" values="0;440;440" keySplines="0.167 0.167 0.833 0.833;0 0 0 0" calcMode="spline"/><animateTransform repeatCount="indefinite" dur="2.9833333s" begin="0s" xlink:href="#_R_G_L_0_G" fill="freeze" attributeName="transform" from="-79.928 -79.928" to="-79.928 -79.928" type="translate" additive="sum" keyTimes="0;1" values="-79.928 -79.928;-79.928 -79.928" keySplines="0 0 1 1" calcMode="spline"/><animateMotion repeatCount="indefinite" dur="2.9833333s" begin="0s" xlink:href="#_R_G_L_0_G_N_1_T_0" fill="freeze" keyTimes="0;0.5027933;0.9944134;1" path="M661.5 317 C661.5,317 651.5,317 651.5,317 C651.5,317 661.5,317 661.5,317 C661.5,317 661.5,317 661.5,317 " keyPoints="0;0.5;1;1" keySplines="0.333 0 0.667 1;0.333 0 0.667 1;0 0 0 0" calcMode="spline"/><animate attributeType="XML" attributeName="opacity" dur="3s" from="0" to="1" xlink:href="#time_group"/></defs><g id="_R_G"><g id="_R_G_L_9_G" transform=" translate(571.5, 296) translate(-550, -304.5)"><g id="_R_G_L_9_G_L_2_G_N_4_T_0"><g id="_R_G_L_9_G_L_2_G" transform=" translate(1367.664, -185.745) translate(251.107, 185.745)"><path id="_R_G_L_9_G_L_2_G_D_0_P_0" fill="#041f41" fill-opacity="1" fill-rule="nonzero" d=" M-36.9 -185.74 C-36.9,-185.74 -36.9,-185.74 -36.9,-185.74 C-36.9,-179.01 -42.38,-173.54 -49.11,-173.54 C-49.11,-173.54 -453.1,-173.54 -453.1,-173.54 C-459.84,-173.54 -465.31,-179.01 -465.31,-185.74 C-465.31,-185.74 -465.31,-185.74 -465.31,-185.74 C-465.31,-192.48 -459.84,-197.95 -453.1,-197.95 C-453.1,-197.95 -49.11,-197.95 -49.11,-197.95 C-42.38,-197.95 -36.9,-192.48 -36.9,-185.74z "/></g></g><g id="_R_G_L_9_G_L_1_G_N_4_T_0"><g id="_R_G_L_9_G_L_1_G" transform=" translate(251.908, 26.26) translate(251.107, 185.745)"><path id="_R_G_L_9_G_L_1_G_D_0_P_0" fill="#041f41" fill-opacity="1" fill-rule="nonzero" d=" M-36.9 -185.74 C-36.9,-185.74 -36.9,-185.74 -36.9,-185.74 C-36.9,-179.01 -42.38,-173.54 -49.11,-173.54 C-49.11,-173.54 -453.1,-173.54 -453.1,-173.54 C-459.84,-173.54 -465.31,-179.01 -465.31,-185.74 C-465.31,-185.74 -465.31,-185.74 -465.31,-185.74 C-465.31,-192.48 -459.84,-197.95 -453.1,-197.95 C-453.1,-197.95 -49.11,-197.95 -49.11,-197.95 C-42.38,-197.95 -36.9,-192.48 -36.9,-185.74z "/></g></g><g id="_R_G_L_9_G_L_0_G_N_4_T_0"><g id="_R_G_L_9_G_L_0_G" transform=" translate(-761.025, -83.957) translate(251.107, 185.745)"><path id="_R_G_L_9_G_L_0_G_D_0_P_0" fill="#041f41" fill-opacity="1" fill-rule="nonzero" d=" M-36.9 -185.74 C-36.9,-185.74 -36.9,-185.74 -36.9,-185.74 C-36.9,-179.01 -42.38,-173.54 -49.11,-173.54 C-49.11,-173.54 -453.1,-173.54 -453.1,-173.54 C-459.84,-173.54 -465.31,-179.01 -465.31,-185.74 C-465.31,-185.74 -465.31,-185.74 -465.31,-185.74 C-465.31,-192.48 -459.84,-197.95 -453.1,-197.95 C-453.1,-197.95 -49.11,-197.95 -49.11,-197.95 C-42.38,-197.95 -36.9,-192.48 -36.9,-185.74z "/></g></g></g><g id="_R_G_L_8_G" transform=" translate(571.5, 296) translate(-550, -304.5)"><g id="_R_G_L_8_G_L_2_G_N_4_T_0"><g id="_R_G_L_8_G_L_2_G" transform=" translate(-834.926, 14.255) translate(251.107, 185.745)"><path id="_R_G_L_8_G_L_2_G_D_0_P_0" fill="#041f41" fill-opacity="1" fill-rule="nonzero" d=" M-36.9 -185.74 C-36.9,-185.74 -36.9,-185.74 -36.9,-185.74 C-36.9,-179.01 -42.38,-173.54 -49.11,-173.54 C-49.11,-173.54 -453.1,-173.54 -453.1,-173.54 C-459.84,-173.54 -465.31,-179.01 -465.31,-185.74 C-465.31,-185.74 -465.31,-185.74 -465.31,-185.74 C-465.31,-192.48 -459.84,-197.95 -453.1,-197.95 C-453.1,-197.95 -49.11,-197.95 -49.11,-197.95 C-42.38,-197.95 -36.9,-192.48 -36.9,-185.74z "/></g></g><g id="_R_G_L_8_G_L_1_G_N_4_T_0"><g id="_R_G_L_8_G_L_1_G" transform=" translate(-184.926, 130.255) translate(251.107, 185.745)"><path id="_R_G_L_8_G_L_1_G_D_0_P_0" fill="#041f41" fill-opacity="1" fill-rule="nonzero" d=" M-36.9 -185.74 C-36.9,-185.74 -36.9,-185.74 -36.9,-185.74 C-36.9,-179.01 -42.38,-173.54 -49.11,-173.54 C-49.11,-173.54 -453.1,-173.54 -453.1,-173.54 C-459.84,-173.54 -465.31,-179.01 -465.31,-185.74 C-465.31,-185.74 -465.31,-185.74 -465.31,-185.74 C-465.31,-192.48 -459.84,-197.95 -453.1,-197.95 C-453.1,-197.95 -49.11,-197.95 -49.11,-197.95 C-42.38,-197.95 -36.9,-192.48 -36.9,-185.74z "/></g></g><g id="_R_G_L_8_G_L_0_G_N_4_T_0"><g id="_R_G_L_8_G_L_0_G" transform=" translate(439.074, -185.745) translate(251.107, 185.745)"><path id="_R_G_L_8_G_L_0_G_D_0_P_0" fill="#041f41" fill-opacity="1" fill-rule="nonzero" d=" M-36.9 -185.74 C-36.9,-185.74 -36.9,-185.74 -36.9,-185.74 C-36.9,-179.01 -42.38,-173.54 -49.11,-173.54 C-49.11,-173.54 -453.1,-173.54 -453.1,-173.54 C-459.84,-173.54 -465.31,-179.01 -465.31,-185.74 C-465.31,-185.74 -465.31,-185.74 -465.31,-185.74 C-465.31,-192.48 -459.84,-197.95 -453.1,-197.95 C-453.1,-197.95 -49.11,-197.95 -49.11,-197.95 C-42.38,-197.95 -36.9,-192.48 -36.9,-185.74z "/></g></g></g><g id="_R_G_L_7_G_N_6_N_1_T_0"><g id="_R_G_L_7_G_N_6_T_0"><g id="_R_G_L_7_G" transform=" translate(-115.849, 85.13) scale(-1, 1) translate(-983.309, -131.358)"><g clip-path="url(#_R_G_L_7_C_0)"><g id="_R_G_L_7_G_G_0_L_1_G_M"><g id="_R_G_L_7_G_G_0_L_1_G"><path id="_R_G_L_7_G_G_0_L_1_G_D_0_P_0" fill="#0070dc" fill-opacity="1" fill-rule="nonzero" d=" M-36.9 -185.74 C-36.9,-185.74 -36.9,-185.74 -36.9,-185.74 C-36.9,-179.01 -42.38,-173.54 -49.11,-173.54 C-49.11,-173.54 -453.1,-173.54 -453.1,-173.54 C-459.84,-173.54 -465.31,-179.01 -465.31,-185.74 C-465.31,-185.74 -465.31,-185.74 -465.31,-185.74 C-465.31,-192.48 -459.84,-197.95 -453.1,-197.95 C-453.1,-197.95 -49.11,-197.95 -49.11,-197.95 C-42.38,-197.95 -36.9,-192.48 -36.9,-185.74z "/></g></g><g id="_R_G_L_7_G_G_0_L_0_G_M"><g id="_R_G_L_7_G_G_0_L_0_G"><path id="_R_G_L_7_G_G_0_L_0_G_D_0_P_0" fill="#0070dc" fill-opacity="1" fill-rule="nonzero" d=" M-36.9 -185.74 C-36.9,-185.74 -36.9,-185.74 -36.9,-185.74 C-36.9,-179.01 -42.38,-173.54 -49.11,-173.54 C-49.11,-173.54 -453.1,-173.54 -453.1,-173.54 C-459.84,-173.54 -465.31,-179.01 -465.31,-185.74 C-465.31,-185.74 -465.31,-185.74 -465.31,-185.74 C-465.31,-192.48 -459.84,-197.95 -453.1,-197.95 C-453.1,-197.95 -49.11,-197.95 -49.11,-197.95 C-42.38,-197.95 -36.9,-192.48 -36.9,-185.74z "/></g></g></g></g></g></g><g id="_R_G_L_6_G_N_6_N_1_T_0_M"><g id="_R_G_L_6_G_N_6_N_1_T_0"><g id="_R_G_L_6_G_N_6_T_0"><g id="_R_G_L_6_G" transform=" translate(-115.849, 124.13) scale(-1, 1) translate(-983.309, -131.358)"><g clip-path="url(#_R_G_L_6_C_0)"><g id="_R_G_L_6_G_G_0_L_1_G_M"><g id="_R_G_L_6_G_G_0_L_1_G"><path id="_R_G_L_6_G_G_0_L_1_G_D_0_P_0" fill="#0070dc" fill-opacity="1" fill-rule="nonzero" d=" M-36.9 -185.74 C-36.9,-185.74 -36.9,-185.74 -36.9,-185.74 C-36.9,-179.01 -42.38,-173.54 -49.11,-173.54 C-49.11,-173.54 -453.1,-173.54 -453.1,-173.54 C-459.84,-173.54 -465.31,-179.01 -465.31,-185.74 C-465.31,-185.74 -465.31,-185.74 -465.31,-185.74 C-465.31,-192.48 -459.84,-197.95 -453.1,-197.95 C-453.1,-197.95 -49.11,-197.95 -49.11,-197.95 C-42.38,-197.95 -36.9,-192.48 -36.9,-185.74z "/></g></g><g id="_R_G_L_6_G_G_0_L_0_G_M"><g id="_R_G_L_6_G_G_0_L_0_G"><path id="_R_G_L_6_G_G_0_L_0_G_D_0_P_0" fill="#0070dc" fill-opacity="1" fill-rule="nonzero" d=" M-36.9 -185.74 C-36.9,-185.74 -36.9,-185.74 -36.9,-185.74 C-36.9,-179.01 -42.38,-173.54 -49.11,-173.54 C-49.11,-173.54 -453.1,-173.54 -453.1,-173.54 C-459.84,-173.54 -465.31,-179.01 -465.31,-185.74 C-465.31,-185.74 -465.31,-185.74 -465.31,-185.74 C-465.31,-192.48 -459.84,-197.95 -453.1,-197.95 C-453.1,-197.95 -49.11,-197.95 -49.11,-197.95 C-42.38,-197.95 -36.9,-192.48 -36.9,-185.74z "/></g></g></g></g></g></g></g><g id="_R_G_L_5_G_N_6_N_1_T_0_M"><g id="_R_G_L_5_G_N_6_N_1_T_0"><g id="_R_G_L_5_G_N_6_T_0"><g id="_R_G_L_5_G" transform=" translate(-115.849, 172.13) scale(-1, 1) translate(-983.309, -131.358)"><g clip-path="url(#_R_G_L_5_C_0)"><g id="_R_G_L_5_G_G_0_L_1_G_M"><g id="_R_G_L_5_G_G_0_L_1_G"><path id="_R_G_L_5_G_G_0_L_1_G_D_0_P_0" fill="#0070dc" fill-opacity="1" fill-rule="nonzero" d=" M-36.9 -185.74 C-36.9,-185.74 -36.9,-185.74 -36.9,-185.74 C-36.9,-179.01 -42.38,-173.54 -49.11,-173.54 C-49.11,-173.54 -453.1,-173.54 -453.1,-173.54 C-459.84,-173.54 -465.31,-179.01 -465.31,-185.74 C-465.31,-185.74 -465.31,-185.74 -465.31,-185.74 C-465.31,-192.48 -459.84,-197.95 -453.1,-197.95 C-453.1,-197.95 -49.11,-197.95 -49.11,-197.95 C-42.38,-197.95 -36.9,-192.48 -36.9,-185.74z "/></g></g><g id="_R_G_L_5_G_G_0_L_0_G_M"><g id="_R_G_L_5_G_G_0_L_0_G"><path id="_R_G_L_5_G_G_0_L_0_G_D_0_P_0" fill="#0070dc" fill-opacity="1" fill-rule="nonzero" d=" M-36.9 -185.74 C-36.9,-185.74 -36.9,-185.74 -36.9,-185.74 C-36.9,-179.01 -42.38,-173.54 -49.11,-173.54 C-49.11,-173.54 -453.1,-173.54 -453.1,-173.54 C-459.84,-173.54 -465.31,-179.01 -465.31,-185.74 C-465.31,-185.74 -465.31,-185.74 -465.31,-185.74 C-465.31,-192.48 -459.84,-197.95 -453.1,-197.95 C-453.1,-197.95 -49.11,-197.95 -49.11,-197.95 C-42.38,-197.95 -36.9,-192.48 -36.9,-185.74z "/></g></g></g></g></g></g></g><g id="_R_G_L_4_G_N_1_T_0"><g id="_R_G_L_4_G"><path id="_R_G_L_4_G_D_0_P_0" fill="#041f41" fill-opacity="1" fill-rule="nonzero" d=" M830.26 394.32 C830.26,394.32 830.26,316.61 830.26,316.61 C848.71,310.2 855.12,294.5 853.68,244.19 C852.11,189.57 820.45,98.39 820.45,98.39 C820.45,98.39 598.03,98.39 598.03,98.39 C598.03,98.39 602.81,249.95 602.81,249.95 C602.81,249.95 0.25,249.95 0.25,249.95 C0.25,249.95 0.25,449.67 0.25,449.67 C0.25,449.67 111.13,449.67 111.13,449.67 C111.13,449.67 111.13,416.17 111.13,416.17 C111.13,416.17 546.29,416.17 546.29,416.17 C546.29,416.17 546.29,449.67 546.29,449.67 C546.29,449.67 888.03,449.67 888.03,449.67 C888.03,449.67 888.03,394.26 888.03,394.26 C888.03,394.26 830.33,394.26 830.33,394.26 C830.33,394.26 830.26,394.32 830.26,394.32z "/><path id="_R_G_L_4_G_D_1_P_0" fill="#0066c9" fill-opacity="1" fill-rule="nonzero" d=" M0.25 0.25 C0.25,0.25 564.41,0.25 564.41,0.25 C564.41,0.25 564.41,347.35 564.41,347.35 C564.41,347.35 0.25,347.35 0.25,347.35 C0.25,347.35 0.25,0.25 0.25,0.25z "/><path id="_R_G_L_4_G_D_2_P_0" fill="#0070dc" fill-opacity="1" fill-rule="nonzero" d=" M45.65 32.57 C45.65,32.57 526.66,32.57 526.66,32.57 C526.66,32.57 526.66,305.03 526.66,305.03 C526.66,305.03 45.65,305.03 45.65,305.03 C45.65,305.03 45.65,32.57 45.65,32.57z "/><path id="_R_G_L_4_G_D_3_P_0" fill="#cdcdcd" fill-opacity="1" fill-rule="nonzero" d=" M826.27 88.37 C826.27,88.37 586.32,88.37 586.32,88.37 C586.32,88.37 586.32,344.67 586.32,344.67 C586.32,344.67 736.78,344.67 736.78,344.67 C736.78,344.67 777.21,427.82 777.21,427.82 C777.21,427.82 837.79,427.82 837.79,427.82 C837.79,427.82 837.79,394.32 837.79,394.32 C837.79,394.32 868.4,394.32 868.4,394.32 C868.4,394.32 868.4,261.59 868.4,261.59 C868.4,261.59 862.06,132.85 826.27,88.37z  M685.95 261 C685.95,261 621.32,261 621.32,261 C621.32,261 621.32,241.05 621.32,241.05 C621.32,241.05 685.95,241.05 685.95,241.05 C685.95,241.05 685.95,261 685.95,261z  M834.84 282.92 C834.84,282.92 690.01,229.8 690.01,229.8 C690.01,229.8 621.32,229.8 621.32,229.8 C621.32,229.8 621.32,105.11 621.32,105.11 C621.32,105.11 778.32,105.11 778.32,105.11 C778.32,105.11 849.3,126.5 834.84,282.92z "/><path id="_R_G_L_4_G_D_4_P_0" fill="#ffffff" fill-opacity="1" fill-rule="nonzero" d=" M820.45 291.55 C820.45,291.55 833.73,291.55 833.73,291.55 C841.71,291.55 848.19,285.08 848.19,277.1 C848.19,277.1 848.19,217.37 848.19,217.37 C848.19,213.05 844.72,209.58 840.4,209.58 C840.4,209.58 828.3,209.58 828.3,209.58 C823.98,209.58 820.51,213.05 820.51,217.37 C820.51,217.37 820.51,291.55 820.51,291.55 C820.51,291.55 820.45,291.55 820.45,291.55z "/><path id="_R_G_L_4_G_D_5_P_0" fill="#ffc222" fill-opacity="1" fill-rule="nonzero" d=" M284.03 127.29 C284.03,127.29 278.86,77.25 278.86,77.25 C277.55,55.27 310.13,55.27 308.89,77.25 C308.89,77.25 303.72,127.29 303.72,127.29 C302.41,139 285.34,138.87 284.09,127.29 C284.09,127.29 284.03,127.29 284.03,127.29z "/><path id="_R_G_L_4_G_D_6_P_0" fill="#ffc222" fill-opacity="1" fill-rule="nonzero" d=" M303.65 210.37 C303.65,210.37 308.82,260.41 308.82,260.41 C310.13,282.39 277.55,282.39 278.8,260.41 C278.8,260.41 283.96,210.37 283.96,210.37 C285.27,198.66 302.35,198.79 303.59,210.37 C303.59,210.37 303.65,210.37 303.65,210.37z "/><path id="_R_G_L_4_G_D_7_P_0" fill="#ffc222" fill-opacity="1" fill-rule="nonzero" d=" M325.57 140.24 C325.57,140.24 366.98,111.65 366.98,111.65 C385.56,99.88 401.32,128.66 381.37,137.95 C381.37,137.95 334.99,157.45 334.99,157.45 C324.13,161.96 316.02,146.85 325.57,140.24z "/><path id="_R_G_L_4_G_D_8_P_0" fill="#ffc222" fill-opacity="1" fill-rule="nonzero" d=" M262.12 197.42 C262.12,197.42 220.71,226 220.71,226 C202.13,237.78 186.36,209 206.31,199.71 C206.31,199.71 252.7,180.21 252.7,180.21 C263.55,175.7 271.67,190.81 262.12,197.42z "/><path id="_R_G_L_4_G_D_9_P_0" fill="#ffc222" fill-opacity="1" fill-rule="nonzero" d=" M334.79 181 C334.79,181 380.78,201.41 380.78,201.41 C388.37,204.81 391.84,213.71 388.44,221.29 C384.71,229.99 373.45,233 365.8,227.44 C365.8,227.44 324.98,198.07 324.98,198.07 C315.5,191.14 324.07,176.35 334.73,181.06 C334.73,181.06 334.79,181 334.79,181z "/><path id="_R_G_L_4_G_D_10_P_0" fill="#ffc222" fill-opacity="1" fill-rule="nonzero" d=" M252.89 156.66 C252.89,156.66 206.9,136.25 206.9,136.25 C199.31,132.85 195.85,123.95 199.25,116.37 C202.98,107.67 214.23,104.66 221.88,110.22 C221.88,110.22 262.7,139.59 262.7,139.59 C272.19,146.52 263.62,161.31 252.96,156.6 C252.96,156.6 252.89,156.66 252.89,156.66z "/></g></g><g id="_R_G_L_3_G_N_1_T_0"><g id="_R_G_L_3_G" transform=" translate(210.455, 178.179) translate(-79.928, -79.928)"><path id="_R_G_L_3_G_D_0_P_0" fill="#041f41" fill-opacity="1" fill-rule="nonzero" d=" M79.93 0.25 C123.93,0.25 159.61,35.92 159.61,79.93 C159.61,123.93 123.93,159.61 79.93,159.61 C35.92,159.61 0.25,123.93 0.25,79.93 C0.25,35.92 35.92,0.25 79.93,0.25z "/><path id="_R_G_L_3_G_D_1_P_0" fill="#e8e7e7" fill-opacity="1" fill-rule="nonzero" d=" M79.93 27.99 C108.61,27.99 131.87,51.24 131.87,79.93 C131.87,108.61 108.61,131.87 79.93,131.87 C51.24,131.87 27.99,108.61 27.99,79.93 C27.99,51.24 51.24,27.99 79.93,27.99z "/><path id="_R_G_L_3_G_D_2_P_0" fill="#041f41" fill-opacity="1" fill-rule="nonzero" d=" M79.93 63.77 C88.85,63.77 96.09,71 96.09,79.93 C96.09,88.85 88.85,96.09 79.93,96.09 C71,96.09 63.77,88.85 63.77,79.93 C63.77,71 71,63.77 79.93,63.77z "/></g></g><g id="_R_G_L_2_G_N_1_T_0"><g id="_R_G_L_2_G" transform=" translate(210.455, 178.179)"><path id="_R_G_L_2_G_D_0_P_0" fill="#0066c9" fill-opacity="1" fill-rule="nonzero" d=" M80.13 147.77 C77.83,147.77 75.51,147.66 73.24,147.43 C73.24,147.43 73.54,144.44 73.54,144.44 C76.05,144.69 78.61,144.8 81.14,144.76 C82.51,144.74 83.9,144.68 85.26,144.57 C85.26,144.57 85.49,147.56 85.49,147.56 C84.07,147.68 82.62,147.74 81.19,147.76 C80.83,147.77 80.48,147.77 80.13,147.77z  M97.57 145.52 C97.57,145.52 96.8,142.62 96.8,142.62 C100.57,141.62 104.27,140.27 107.8,138.61 C107.8,138.61 109.08,141.32 109.08,141.32 C105.39,143.06 101.51,144.48 97.57,145.52z  M61.21 145.1 C57.3,143.97 53.46,142.47 49.8,140.64 C49.8,140.64 51.14,137.95 51.14,137.95 C54.64,139.7 58.31,141.14 62.05,142.22 C62.05,142.22 61.21,145.1 61.21,145.1z  M119.65 135.12 C119.65,135.12 117.91,132.68 117.91,132.68 C121.07,130.42 124.06,127.85 126.78,125.04 C126.78,125.04 128.94,127.13 128.94,127.13 C126.09,130.06 122.97,132.75 119.65,135.12z  M39.38 134.2 C36.12,131.75 33.06,128.99 30.28,126 C30.28,126 32.48,123.96 32.48,123.96 C35.14,126.82 38.06,129.46 41.18,131.8 C41.18,131.8 39.38,134.2 39.38,134.2z  M136.65 117.61 C136.65,117.61 134.15,115.94 134.15,115.94 C136.33,112.7 138.22,109.24 139.77,105.67 C139.77,105.67 142.52,106.86 142.52,106.86 C140.9,110.6 138.92,114.22 136.65,117.61z  M22.79 116.3 C20.59,112.86 18.7,109.2 17.16,105.42 C17.16,105.42 19.94,104.29 19.94,104.29 C21.41,107.9 23.22,111.4 25.32,114.69 C25.32,114.69 22.79,116.3 22.79,116.3z  M146.37 95.23 C146.37,95.23 143.45,94.55 143.45,94.55 C144.33,90.76 144.87,86.85 145.05,82.95 C145.05,82.95 148.05,83.09 148.05,83.09 C147.86,87.18 147.29,91.26 146.37,95.23z  M13.59 93.7 C12.76,89.72 12.29,85.62 12.19,81.53 C12.19,81.53 13.69,81.49 13.69,81.49 C13.69,81.49 12.18,81.52 12.18,81.52 C12.18,81.13 12.17,80.74 12.17,80.36 C12.17,77.49 12.36,74.58 12.72,71.73 C12.72,71.73 15.7,72.11 15.7,72.11 C15.35,74.83 15.17,77.61 15.17,80.36 C15.17,80.72 15.18,81.09 15.18,81.46 C15.28,85.37 15.74,89.28 16.53,93.09 C16.53,93.09 13.59,93.7 13.59,93.7z  M144.57 71.25 C144.07,67.37 143.2,63.53 142.01,59.83 C142.01,59.83 144.86,58.9 144.86,58.9 C146.11,62.78 147.02,66.8 147.55,70.86 C147.55,70.86 144.57,71.25 144.57,71.25z  M18.2 60.66 C18.2,60.66 15.34,59.76 15.34,59.76 C16.56,55.88 18.15,52.07 20.05,48.45 C20.05,48.45 22.71,49.85 22.71,49.85 C20.89,53.31 19.37,56.95 18.2,60.66z  M137.42 49.05 C135.57,45.62 133.4,42.33 130.96,39.28 C130.96,39.28 133.31,37.41 133.31,37.41 C135.86,40.6 138.13,44.04 140.06,47.63 C140.06,47.63 137.42,49.05 137.42,49.05z  M29.06 40.01 C29.06,40.01 26.7,38.16 26.7,38.16 C28.28,36.14 29.98,34.2 31.77,32.38 C32.82,31.3 33.94,30.23 35.07,29.22 C35.07,29.22 37.07,31.46 37.07,31.46 C35.99,32.43 34.92,33.44 33.91,34.47 C32.2,36.22 30.57,38.08 29.06,40.01z  M122.86 30.82 C119.92,28.24 116.73,25.93 113.38,23.94 C113.38,23.94 114.92,21.36 114.92,21.36 C118.42,23.45 121.76,25.87 124.83,28.56 C124.83,28.56 122.86,30.82 122.86,30.82z  M46.47 24.47 C46.47,24.47 44.9,21.91 44.9,21.91 C48.38,19.78 52.07,17.94 55.88,16.46 C55.88,16.46 56.97,19.26 56.97,19.26 C53.33,20.68 49.8,22.43 46.47,24.47z  M102.83 18.87 C99.18,17.51 95.38,16.48 91.53,15.8 C91.53,15.8 92.06,12.84 92.06,12.84 C96.08,13.56 100.06,14.64 103.88,16.06 C103.88,16.06 102.83,18.87 102.83,18.87z  M68.22 16.01 C68.22,16.01 67.65,13.06 67.65,13.06 C71.66,12.28 75.76,11.86 79.84,11.81 C79.84,11.81 79.87,14.81 79.87,14.81 C75.97,14.86 72.05,15.26 68.22,16.01z "/></g></g><g id="_R_G_L_1_G_N_1_T_0"><g id="_R_G_L_1_G" transform=" translate(-303.251, 178.179) translate(-79.928, -79.928)"><path id="_R_G_L_1_G_D_0_P_0" fill="#041f41" fill-opacity="1" fill-rule="nonzero" d=" M79.93 0.25 C123.93,0.25 159.61,35.92 159.61,79.93 C159.61,123.93 123.93,159.61 79.93,159.61 C35.92,159.61 0.25,123.93 0.25,79.93 C0.25,35.92 35.92,0.25 79.93,0.25z "/><path id="_R_G_L_1_G_D_1_P_0" fill="#e8e7e7" fill-opacity="1" fill-rule="nonzero" d=" M79.93 27.99 C108.61,27.99 131.87,51.24 131.87,79.93 C131.87,108.61 108.61,131.87 79.93,131.87 C51.24,131.87 27.99,108.61 27.99,79.93 C27.99,51.24 51.24,27.99 79.93,27.99z "/><path id="_R_G_L_1_G_D_2_P_0" fill="#041f41" fill-opacity="1" fill-rule="nonzero" d=" M79.93 63.77 C88.85,63.77 96.09,71 96.09,79.93 C96.09,88.85 88.85,96.09 79.93,96.09 C71,96.09 63.77,88.85 63.77,79.93 C63.77,71 71,63.77 79.93,63.77z "/></g></g><g id="_R_G_L_0_G_N_1_T_0"><g id="_R_G_L_0_G" transform=" translate(-303.251, 178.179)"><path id="_R_G_L_0_G_D_0_P_0" fill="#0066c9" fill-opacity="1" fill-rule="nonzero" d=" M80.13 147.77 C77.83,147.77 75.51,147.66 73.24,147.43 C73.24,147.43 73.54,144.44 73.54,144.44 C76.05,144.69 78.61,144.8 81.14,144.76 C82.51,144.74 83.9,144.68 85.26,144.57 C85.26,144.57 85.49,147.56 85.49,147.56 C84.07,147.68 82.62,147.74 81.19,147.76 C80.83,147.77 80.48,147.77 80.13,147.77z  M97.57 145.52 C97.57,145.52 96.8,142.62 96.8,142.62 C100.57,141.62 104.27,140.27 107.8,138.61 C107.8,138.61 109.08,141.32 109.08,141.32 C105.39,143.06 101.51,144.48 97.57,145.52z  M61.21 145.1 C57.3,143.97 53.46,142.47 49.8,140.64 C49.8,140.64 51.14,137.95 51.14,137.95 C54.64,139.7 58.31,141.14 62.05,142.22 C62.05,142.22 61.21,145.1 61.21,145.1z  M119.65 135.12 C119.65,135.12 117.91,132.68 117.91,132.68 C121.07,130.42 124.06,127.85 126.78,125.04 C126.78,125.04 128.94,127.13 128.94,127.13 C126.09,130.06 122.97,132.75 119.65,135.12z  M39.38 134.2 C36.12,131.75 33.06,128.99 30.28,126 C30.28,126 32.48,123.96 32.48,123.96 C35.14,126.82 38.06,129.46 41.18,131.8 C41.18,131.8 39.38,134.2 39.38,134.2z  M136.65 117.61 C136.65,117.61 134.15,115.94 134.15,115.94 C136.33,112.7 138.22,109.24 139.77,105.67 C139.77,105.67 142.52,106.86 142.52,106.86 C140.9,110.6 138.92,114.22 136.65,117.61z  M22.79 116.3 C20.59,112.86 18.7,109.2 17.16,105.42 C17.16,105.42 19.94,104.29 19.94,104.29 C21.41,107.9 23.22,111.4 25.32,114.69 C25.32,114.69 22.79,116.3 22.79,116.3z  M146.37 95.23 C146.37,95.23 143.45,94.55 143.45,94.55 C144.33,90.76 144.87,86.85 145.05,82.95 C145.05,82.95 148.05,83.09 148.05,83.09 C147.86,87.18 147.29,91.26 146.37,95.23z  M13.59 93.7 C12.76,89.72 12.29,85.62 12.19,81.53 C12.19,81.53 13.69,81.49 13.69,81.49 C13.69,81.49 12.18,81.52 12.18,81.52 C12.18,81.13 12.17,80.74 12.17,80.36 C12.17,77.49 12.36,74.58 12.72,71.73 C12.72,71.73 15.7,72.11 15.7,72.11 C15.35,74.83 15.17,77.61 15.17,80.36 C15.17,80.72 15.18,81.09 15.18,81.46 C15.28,85.37 15.74,89.28 16.53,93.09 C16.53,93.09 13.59,93.7 13.59,93.7z  M144.57 71.25 C144.07,67.37 143.2,63.53 142.01,59.83 C142.01,59.83 144.86,58.9 144.86,58.9 C146.11,62.78 147.02,66.8 147.55,70.86 C147.55,70.86 144.57,71.25 144.57,71.25z  M18.2 60.66 C18.2,60.66 15.34,59.76 15.34,59.76 C16.56,55.88 18.15,52.07 20.05,48.45 C20.05,48.45 22.71,49.85 22.71,49.85 C20.89,53.31 19.37,56.95 18.2,60.66z  M137.42 49.05 C135.57,45.62 133.4,42.33 130.96,39.28 C130.96,39.28 133.31,37.41 133.31,37.41 C135.86,40.6 138.13,44.04 140.06,47.63 C140.06,47.63 137.42,49.05 137.42,49.05z  M29.06 40.01 C29.06,40.01 26.7,38.16 26.7,38.16 C28.28,36.14 29.98,34.2 31.77,32.38 C32.82,31.3 33.94,30.23 35.07,29.22 C35.07,29.22 37.07,31.46 37.07,31.46 C35.99,32.43 34.92,33.44 33.91,34.47 C32.2,36.22 30.57,38.08 29.06,40.01z  M122.86 30.82 C119.92,28.24 116.73,25.93 113.38,23.94 C113.38,23.94 114.92,21.36 114.92,21.36 C118.42,23.45 121.76,25.87 124.83,28.56 C124.83,28.56 122.86,30.82 122.86,30.82z  M46.47 24.47 C46.47,24.47 44.9,21.91 44.9,21.91 C48.38,19.78 52.07,17.94 55.88,16.46 C55.88,16.46 56.97,19.26 56.97,19.26 C53.33,20.68 49.8,22.43 46.47,24.47z  M102.83 18.87 C99.18,17.51 95.38,16.48 91.53,15.8 C91.53,15.8 92.06,12.84 92.06,12.84 C96.08,13.56 100.06,14.64 103.88,16.06 C103.88,16.06 102.83,18.87 102.83,18.87z  M68.22 16.01 C68.22,16.01 67.65,13.06 67.65,13.06 C71.66,12.28 75.76,11.86 79.84,11.81 C79.84,11.81 79.87,14.81 79.87,14.81 C75.97,14.86 72.05,15.26 68.22,16.01z "/></g></g></g><g id="time_group"/></svg>