<?xml version="1.0" encoding="UTF-8"?>
<svg width="66px" height="46px" viewBox="0 0 66 46" version="1.1" xmlns="http://www.w3.org/2000/svg" xmlns:xlink="http://www.w3.org/1999/xlink">
    <title>color/American Express</title>
    <g id="Cards" stroke="none" stroke-width="1" fill="none" fill-rule="evenodd">
        <g id="Color-Symbols" transform="translate(-252, -27)">
            <g id="American-Express" transform="translate(252, 27)">
                <path d="M3,0 L63,0 C64.6568542,-4.4408921e-16 66,1.34314575 66,3 L66,43 C66,44.6568542 64.6568542,46 63,46 L3,46 C1.34314575,46 0,44.6568542 0,43 L0,3 C0,1.34314575 1.34314575,0 3,0 Z" id="Rectangle-Copy-4" fill="#016FD0"></path>
                <g id="American_Express_logo_(2018)" transform="translate(0, 11)">
                    <path d="M12.8206087,23.7902637 L12.8206087,13.5292056 L23.7429019,13.5292056 L24.9147457,15.0487731 L26.1253392,13.5292056 L65.7705677,13.5292056 L65.7705677,23.0826077 C65.7705677,23.0826077 64.7337749,23.7800033 63.534676,23.7902637 L41.5822949,23.7902637 L40.2610868,22.1727568 L40.2610868,23.7902637 L35.9315889,23.7902637 L35.9315889,21.0291302 C35.9315889,21.0291302 35.3401729,21.414552 34.0615718,21.414552 L32.5879163,21.414552 L32.5879163,23.7902637 L26.0326909,23.7902637 L24.8625214,22.2381065 L23.6743851,23.7902637 L12.8206087,23.7902637 Z" id="path3082" fill="#FFFFFF"></path>
                    <path d="M0.0658682635,5.79550532 L2.52888847,0.0836887797 L6.78842473,0.0836887797 L8.18621713,3.28321704 L8.18621713,0.0836887797 L13.4812134,0.0836887797 L14.3133199,2.39621294 L15.120019,0.0836887797 L38.8890628,0.0836887797 L38.8890628,1.24627027 C38.8890628,1.24627027 40.1385804,0.0836887797 42.1920835,0.0836887797 L49.9042684,0.11049959 L51.2779307,3.26815397 L51.2779307,0.0836887797 L55.7090593,0.0836887797 L56.9286366,1.89750696 L56.9286366,0.0836887797 L61.4004178,0.0836887797 L61.4004178,10.3447404 L56.9286366,10.3447404 L55.7598754,8.52504505 L55.7598754,10.3447404 L49.2495649,10.3447404 L48.5948614,8.72723342 L46.8446705,8.72723342 L46.2006231,10.3447404 L41.7855577,10.3447404 C40.0185829,10.3447404 38.8890628,9.20589681 38.8890628,9.20589681 L38.8890628,10.3447404 L32.2322066,10.3447404 L30.9109979,8.72723342 L30.9109979,10.3447404 L6.15740018,10.3447404 L5.50314784,8.72723342 L3.75853796,8.72723342 L3.10890958,10.3447404 L0.0658682635,10.3447404 L0.0658682635,5.79550532 Z" id="path3080" fill="#FFFFFF"></path>
                    <path d="M3.40064868,1.34865848 L0.0785722096,9.03180999 L2.2414154,9.03180999 L2.85437979,7.49329402 L6.41783078,7.49329402 L7.0276194,9.03180999 L9.23810234,9.03180999 L5.91920144,1.34865848 L3.40064868,1.34865848 Z M4.62975311,3.13676003 L5.71593922,5.82523833 L3.5403915,5.82523833 L4.62975311,3.13676003 L4.62975311,3.13676003 Z" id="path3046" fill="#016FD0" fill-rule="nonzero"></path>
                    <polygon id="path3048" fill="#016FD0" points="9.46677257 9.03051925 9.46677257 1.34736118 12.5402931 1.35871581 14.3279571 6.3123276 16.072814 1.34736118 19.1217558 1.34736118 19.1217558 9.03051925 17.1907592 9.03051925 17.1907592 3.36924488 15.143862 9.03051925 13.4503738 9.03051925 11.3977692 3.36924488 11.3977692 9.03051925"></polygon>
                    <polygon id="path3050" fill="#016FD0" points="20.4429638 9.03051925 20.4429638 1.34736118 26.744111 1.34736118 26.744111 3.0659656 22.3942868 3.0659656 22.3942868 4.38018673 26.6424795 4.38018673 26.6424795 5.99769369 22.3942868 5.99769369 22.3942868 7.36246355 26.744111 7.36246355 26.744111 9.03051925"></polygon>
                    <path d="M27.8620561,1.34865848 L27.8620561,9.03180999 L29.7930528,9.03180999 L29.7930528,6.30227027 L30.6061036,6.30227027 L32.9213941,9.03180999 L35.2811484,9.03180999 L32.7403631,6.20117936 C33.783117,6.11365111 34.8587425,5.22340377 34.8587425,3.84126454 C34.8587425,2.22445864 33.5829881,1.34865848 32.1591587,1.34865848 L27.8620561,1.34865848 L27.8620561,1.34865848 Z M29.7930528,3.06725635 L32.0003595,3.06725635 C32.529862,3.06725635 32.9150425,3.47925962 32.9150425,3.87600983 C32.9150425,4.3864439 32.4159764,4.68476331 32.0289437,4.68476331 L29.7930528,4.68476331 L29.7930528,3.06725635 L29.7930528,3.06725635 Z" id="path3052" fill="#016FD0" fill-rule="nonzero"></path>
                    <polygon id="path3054" fill="#016FD0" points="37.6186708 9.03051925 35.6470216 9.03051925 35.6470216 1.34736118 37.6186708 1.34736118"></polygon>
                    <path d="M42.2937149,9.03051925 L41.8681335,9.03051925 C39.8089783,9.03051925 38.5587611,7.41681245 38.5587611,5.22053399 C38.5587611,2.96999836 39.7949806,1.34736118 42.3953463,1.34736118 L44.5296059,1.34736118 L44.5296059,3.16705651 L42.3173168,3.16705651 C41.261712,3.16705651 40.5151651,3.98649631 40.5151651,5.23948894 C40.5151651,6.72742342 41.3688092,7.35235381 42.5986092,7.35235381 L43.1067657,7.35235381 L42.2937149,9.03051925 Z" id="path3056" fill="#016FD0"></path>
                    <path d="M46.4955377,1.34865848 L43.173462,9.03180999 L45.336305,9.03180999 L45.9492692,7.49329402 L49.5127205,7.49329402 L50.1225084,9.03180999 L52.3329914,9.03180999 L49.0140911,1.34865848 L46.4955377,1.34865848 Z M47.7246428,3.13676003 L48.8108283,5.82523833 L46.6352812,5.82523833 L47.7246428,3.13676003 Z" id="path3058" fill="#016FD0" fill-rule="nonzero"></path>
                    <polygon id="path3060" fill="#016FD0" points="52.5584861 9.03051925 52.5584861 1.34736118 55.0135195 1.34736118 58.1482132 6.17461097 58.1482132 1.34736118 60.0792098 1.34736118 60.0792098 9.03051925 57.703576 9.03051925 54.4894828 4.07690745 54.4894828 9.03051925"></polygon>
                    <polygon id="path3062" fill="#016FD0" points="14.1418174 22.4760426 14.1418174 14.7928845 20.4429638 14.7928845 20.4429638 16.5114889 16.0931403 16.5114889 16.0931403 17.8257101 20.3413324 17.8257101 20.3413324 19.443217 16.0931403 19.443217 16.0931403 20.8079869 20.4429638 20.8079869 20.4429638 22.4760426"></polygon>
                    <polygon id="path3064" fill="#016FD0" points="45.0174361 22.4760426 45.0174361 14.7928845 51.3185832 14.7928845 51.3185832 16.5114889 46.968759 16.5114889 46.968759 17.8257101 51.1966255 17.8257101 51.1966255 19.443217 46.968759 19.443217 46.968759 20.8079869 51.3185832 20.8079869 51.3185832 22.4760426"></polygon>
                    <polygon id="path3066" fill="#016FD0" points="20.6875143 22.4760426 23.7555124 18.6818477 20.614467 14.7928845 23.0472685 14.7928845 24.9179213 17.1970254 26.7949263 14.7928845 29.1324487 14.7928845 26.0326909 18.6344636 29.1063366 22.4760426 26.6739198 22.4760426 24.857578 20.1097985 23.0853805 22.4760426"></polygon>
                    <path d="M29.3357116,14.7941818 L29.3357116,22.4773333 L31.3175237,22.4773333 L31.3175237,20.0510729 L33.3501517,20.0510729 C35.0700426,20.0510729 36.3736855,19.1434627 36.3736855,17.378398 C36.3736855,15.916226 35.3512316,14.7941818 33.6010545,14.7941818 L29.3357116,14.7941818 L29.3357116,14.7941818 Z M31.3175237,16.5317346 L33.4581349,16.5317346 C34.013764,16.5317346 34.4109292,16.8704799 34.4109292,17.4163079 C34.4109292,17.9290811 34.015769,18.3008812 33.4517832,18.3008812 L31.3175237,18.3008812 L31.3175237,16.5317346 Z" id="path3068" fill="#016FD0" fill-rule="nonzero"></path>
                    <path d="M37.212145,14.7928845 L37.212145,22.4760426 L39.1431417,22.4760426 L39.1431417,19.7464963 L39.9561925,19.7464963 L42.2714831,22.4760426 L44.6312373,22.4760426 L42.090452,19.6454054 C43.1332053,19.557864 44.2088314,18.6676298 44.2088314,17.285484 C44.2088314,15.6686847 42.9330771,14.7928845 41.5092476,14.7928845 L37.212145,14.7928845 L37.212145,14.7928845 Z M39.1431417,16.5114889 L41.3504484,16.5114889 C41.8799509,16.5114889 42.2651307,16.9234857 42.2651307,17.3202359 C42.2651307,17.8306765 41.7660647,18.1289894 41.379032,18.1289894 L39.1431417,18.1289894 L39.1431417,16.5114889 L39.1431417,16.5114889 Z" id="path3072" fill="#016FD0" fill-rule="nonzero"></path>
                    <path d="M52.2129392,22.4760426 L52.2129392,20.8079869 L56.0774737,20.8079869 C56.649286,20.8079869 56.8968769,20.5006192 56.8968769,20.1635119 C56.8968769,19.8405242 56.6500665,19.5139853 56.0774737,19.5139853 L54.3311348,19.5139853 C52.8131539,19.5139853 51.9677538,18.5940246 51.9677538,17.2128288 C51.9677538,15.9809009 52.7419351,14.7928845 54.9976399,14.7928845 L58.7580018,14.7928845 L57.9449503,16.5215921 L54.6927456,16.5215921 C54.0710671,16.5215921 53.8796941,16.8460868 53.8796941,17.155964 C53.8796941,17.4744701 54.1161849,17.8257101 54.5911142,17.8257101 L56.4204794,17.8257101 C58.1126542,17.8257101 58.8469292,18.7804947 58.8469292,20.0308272 C58.8469292,21.3750565 58.0287057,22.4760426 56.32836,22.4760426 L52.2129392,22.4760426 Z" id="path3074" fill="#016FD0"></path>
                    <path d="M59.3001424,22.4760426 L59.3001424,20.8079869 L63.1646743,20.8079869 C63.7364898,20.8079869 63.984082,20.5006192 63.984082,20.1635119 C63.984082,19.8405242 63.7372671,19.5139853 63.1646743,19.5139853 L61.418338,19.5139853 C59.9003571,19.5139853 59.0549563,18.5940246 59.0549563,17.2128288 C59.0549563,15.9809009 59.8291377,14.7928845 62.0848425,14.7928845 L65.845203,14.7928845 L65.0321515,16.5215921 L61.7799481,16.5215921 C61.1582703,16.5215921 60.9668973,16.8460868 60.9668973,17.155964 C60.9668973,17.4744701 61.2033874,17.8257101 61.6783167,17.8257101 L63.5076832,17.8257101 C65.1998587,17.8257101 65.9341317,18.7804947 65.9341317,20.0308272 C65.9341317,21.3750565 65.1159096,22.4760426 63.4155599,22.4760426 L59.3001424,22.4760426 Z" id="path3076" fill="#016FD0"></path>
                </g>
            </g>
        </g>
    </g>
</svg>