<?xml version="1.0" encoding="UTF-8"?>
<svg width="66px" height="46px" viewBox="0 0 66 46" version="1.1" xmlns="http://www.w3.org/2000/svg" xmlns:xlink="http://www.w3.org/1999/xlink">
    <title>color/Dinersclub</title>
    <defs>
        <linearGradient x1="70.7519601%" y1="81.9569836%" x2="32.4763686%" y2="18.0430164%" id="linearGradient-1">
            <stop stop-color="#009BE0" offset="0%"></stop>
            <stop stop-color="#006BA8" offset="100%"></stop>
        </linearGradient>
    </defs>
    <g id="Cards" stroke="none" stroke-width="1" fill="none" fill-rule="evenodd">
        <g id="Color-Symbols" transform="translate(-326, -133)">
            <g id="Dinersclub" transform="translate(326, 133)">
                <path d="M63,0.5 C63.6903559,0.5 64.3153559,0.779822031 64.767767,1.23223305 C65.220178,1.68464406 65.5,2.30964406 65.5,3 L65.5,43 C65.5,43.6903559 65.220178,44.3153559 64.767767,44.767767 C64.3153559,45.220178 63.6903559,45.5 63,45.5 L3,45.5 C2.30964406,45.5 1.68464406,45.220178 1.23223305,44.767767 C0.779822031,44.3153559 0.5,43.6903559 0.5,43 L0.5,3 C0.5,2.30964406 0.779822031,1.68464406 1.23223305,1.23223305 C1.68464406,0.779822031 2.30964406,0.5 3,0.5 Z" id="Rectangle-Copy-24" stroke="#E6E7E8" fill="#FFFFFF"></path>
                <g id="Shape-+-Shape-Copy" transform="translate(18, 11)">
                    <path d="M17.5521193,23.9526128 C24.0395604,23.9837949 29.9609105,18.6134979 29.9609105,12.0803177 C29.9609105,4.93592165 24.0395604,-0.00237538044 17.5521193,0 L11.9689168,0 C5.40376766,-0.00237538044 0,4.93739492 0,12.0803177 C0,18.6149236 5.40376766,23.9838424 11.9689168,23.9526128 L17.5521193,23.9526128 L17.5521193,23.9526128 Z" id="Shape" fill="url(#linearGradient-1)"></path>
                    <path d="M11.9919937,0.998019802 C5.99293564,0.999920792 1.13171115,5.90685149 1.13029827,11.9629782 C1.13171115,18.0180594 5.99288854,22.9245149 11.9919937,22.9264158 C17.9924647,22.9245149 22.8546782,18.0180594 22.8555259,11.9629782 C22.8546311,5.90685149 17.9924647,0.999920792 11.9919937,0.998019802 L11.9919937,0.998019802 Z M5.10706436,11.9629782 L5.10706436,11.9629782 C5.11271586,9.00361188 6.94427002,6.48004752 9.52700157,5.47722772 L9.52700157,18.4472079 C6.94427002,17.4449584 5.11266876,14.9227723 5.10706436,11.9629782 L5.10706436,11.9629782 Z M14.456044,18.4500594 L14.456044,18.4500594 L14.456044,5.4768 C17.0397174,6.47719604 18.8740973,9.00218614 18.8788069,11.9629782 C18.8740973,14.9246733 17.0397174,17.4477624 14.456044,18.4500594 L14.456044,18.4500594 Z" id="Shape" fill="#F4F6F7"></path>
                </g>
            </g>
        </g>
    </g>
</svg>