<?xml version="1.0" encoding="UTF-8"?>
<svg width="66px" height="46px" viewBox="0 0 66 46" version="1.1" xmlns="http://www.w3.org/2000/svg" xmlns:xlink="http://www.w3.org/1999/xlink">
    <title>color/JCB</title>
    <defs>
        <linearGradient x1="100%" y1="43.9848873%" x2="3.38051762%" y2="43.984887%" id="linearGradient-1">
            <stop stop-color="#43C311" offset="0%"></stop>
            <stop stop-color="#288C00" offset="100%"></stop>
        </linearGradient>
        <path d="M3.98377784,0 C3.75200051,0.00064863763 3.52084933,0.00854039546 3.29335065,0.0344859006 L3.29335065,0.0344859006 C2.40328816,0.135781477 1.56592605,0.580638785 0.964515551,1.2670055 L0.964515551,1.2670055 C0.518388555,1.77618604 0.208656408,2.40676992 0.0772707032,3.08102874 L0.0772707032,3.08102874 C0.0124648868,3.41388795 0.00422066866,3.74761201 0.00422066866,4.08490358 L0.00422066866,4.08490358 L0.00422066866,6.32378446 L0.00422066866,7.40906332 L0.00422066866,7.72797683 C0.00422066866,7.81338078 -0.0155028407,7.82008337 0.0754966309,7.82008337 L0.0754966309,7.82008337 L1.49965923,7.82008337 L2.91860398,7.82008337 L4.34621037,7.82008337 C4.81226959,7.82008337 5.28208566,7.80192152 5.74678824,7.84559645 L5.74678824,7.84559645 C6.20460324,7.88873085 6.67066246,8.02375559 7.04092178,8.31521009 L7.04092178,8.31521009 C7.56155981,8.72514908 7.77330056,9.4322722 7.59526719,10.0827476 L7.59526719,10.0827476 C7.42453882,10.7071695 6.91245808,11.125865 6.32711859,11.2996999 L6.32711859,11.2996999 C6.26231277,11.3189429 6.19677645,11.3354831 6.13071835,11.3495369 L6.13071835,11.3495369 C6.09241926,11.357753 6.04076245,11.3562395 6.00590715,11.372996 L6.00590715,11.372996 C5.98879257,11.3812121 5.94506691,11.3914822 5.97710457,11.4230492 L5.97710457,11.4230492 C5.98514007,11.4309409 6.01905616,11.4308328 6.04399753,11.4306166 L6.04399753,11.4306166 C6.05422453,11.4305085 6.06299053,11.4305085 6.06799968,11.4309409 L6.06799968,11.4309409 C6.25166834,11.4492109 6.43439778,11.4821833 6.61263987,11.5325608 L6.61263987,11.5325608 C7.15769748,11.6865042 7.68678845,12.0175256 7.93933285,12.5608677 L7.93933285,12.5608677 C8.23821185,13.2038838 8.08585035,14.0003027 7.60298962,14.499105 L7.60298962,14.499105 C7.22271201,14.8920713 6.69184697,15.0926085 6.16640851,15.1590938 L6.16640851,15.1590938 C5.9029066,15.1922825 5.63752626,15.1854718 5.37266771,15.1854718 L5.37266771,15.1854718 L3.94506132,15.1854718 L2.51745493,15.1854718 L1.09840583,15.1854718 L0.384602634,15.1854718 L0.206151836,15.1854718 C0.165452531,15.1854718 0.0504509048,15.1646073 0.0170566033,15.1854718 L0.0170566033,15.1854718 C-0.00245819164,15.1977959 0.00422066866,15.2156334 0.00422066866,15.2480653 L0.00422066866,15.2480653 L0.00422066866,16.6144205 L0.00422066866,19.0255146 L0.00422066866,21.4619057 L0.00422066866,22.9040433 C0.00422066866,22.9185296 -0.00527583583,22.9817718 0.00422066866,22.9934472 L0.00422066866,22.9934472 C0.0155956026,23.0071767 0.111291148,22.9950688 0.134771516,22.9950688 L0.134771516,22.9950688 L0.313222315,22.9950688 L1.02702551,22.9950688 L2.44607461,22.9950688 L3.873681,22.9950688 L5.29669567,22.9950688 C6.1444935,22.9950688 6.95169638,22.7672889 7.63867978,22.2348655 L7.63867978,22.2348655 C8.57048515,21.5129318 9.12086498,20.3650594 9.12556105,19.1604313 L9.12556105,19.1604313 C9.12576977,19.1138375 9.12587413,19.0671355 9.12587413,19.0205417 L9.12587413,19.0205417 L9.12587413,18.9523267 C9.12576977,18.8491933 9.12556105,18.7459518 9.12556105,18.6428184 L9.12556105,18.6428184 L9.12556105,17.3728941 C9.12556105,16.7580937 9.12556105,16.1434014 9.12556105,15.5287092 L9.12556105,15.5287092 C9.12556105,14.7734788 9.12556105,14.0183565 9.12556105,13.2632341 L9.12556105,13.2632341 C9.12556105,12.429951 9.12556105,11.5965598 9.12556105,10.7632766 L9.12556105,10.7632766 C9.12556105,9.90102099 9.12556105,9.03865726 9.12556105,8.17640164 L9.12556105,8.17640164 C9.12556105,7.3448482 9.12556105,6.51340286 9.12556105,5.68184942 L9.12556105,5.68184942 C9.12556105,4.94034851 9.12556105,4.1989557 9.12556105,3.45745478 L9.12556105,3.45745478 C9.12556105,2.85595148 9.12556105,2.25444819 9.12556105,1.65294489 L9.12556105,1.65294489 L9.12556105,0.451343684 C9.12556105,0.304643473 9.12556105,0.157943263 9.12556105,0.011134946 L9.12556105,0.011134946 L9.11095105,0.011134946 C8.65741469,0.0118916899 8.20366962,0.011134946 7.7500289,0.011134946 L7.7500289,0.011134946 L6.32711859,0.011134946 L4.89940784,0.011134946 C4.61743471,0.011134946 4.3307655,0.000756743901 4.04493115,0 L4.04493115,0 L3.98377784,0 Z M1.78920387,8.98393362 C1.77758445,9.01040198 1.78920387,9.06894999 1.78920387,9.09742995 L1.78920387,9.09742995 L1.78920387,10.117097 L1.78920387,10.5936334 C1.78920387,10.6334418 1.77071843,10.7702303 1.79871067,10.7904521 L1.79871067,10.7904521 C1.82268893,10.8077095 1.92641866,10.7904521 1.95726293,10.7904521 L1.95726293,10.7904521 L2.12859656,10.7904521 L2.45827119,10.7904521 L3.11307831,10.7904521 C3.32814321,10.7904521 3.54363063,10.7943694 3.7585899,10.7904521 L3.7585899,10.7904521 C4.02488588,10.7855819 4.282837,10.7059651 4.47212791,10.5106286 L4.47212791,10.5106286 C4.68634776,10.2896708 4.7629303,9.96463929 4.69775592,9.66639381 L4.69775592,9.66639381 C4.66807358,9.53447551 4.61082153,9.41081533 4.52631666,9.30504777 L4.52631666,9.30504777 C4.36417294,9.102406 4.12270027,8.99007428 3.8669674,8.96932309 L3.8669674,8.96932309 C3.74549165,8.95947686 3.62285395,8.96402942 3.50106131,8.96402942 L3.50106131,8.96402942 L2.84625418,8.96402942 L2.1786657,8.96402942 L1.85363884,8.96402942 C1.83610408,8.96402942 1.82437902,8.96244131 1.81582291,8.96244131 L1.81582291,8.96244131 C1.80283028,8.96244131 1.7971262,8.96604101 1.78920387,8.98393362 L1.78920387,8.98393362 Z M3.19594543,11.9867902 L1.78877064,11.9867902 C1.78877064,12.0055953 1.78877064,12.0244005 1.78877064,12.0432056 L1.78877064,12.0432056 L1.78877064,13.0630571 L1.78877064,13.6652592 L1.78877064,13.8851264 C1.78877064,13.9165048 1.77627446,13.9827602 1.78877064,14.0116239 L1.78877064,14.0116239 C1.80772319,14.0552475 1.98256568,14.0306477 2.03859025,14.0306477 L2.03859025,14.0306477 L2.39473158,14.0306477 L3.09837104,14.0306477 L3.80586349,14.0306477 C4.03579333,14.0306477 4.25635103,14.0158878 4.46014301,13.8897184 L4.46014301,13.8897184 C4.70777578,13.7364345 4.8764743,13.4686798 4.9188572,13.1704214 L4.9188572,13.1704214 C4.96738406,12.829414 4.85720935,12.4764894 4.61145101,12.245033 L4.61145101,12.245033 C4.41255336,12.0577468 4.16585781,11.9888675 3.90354201,11.9867902 L3.90354201,11.9867902 C3.82481604,11.9861342 3.74619419,11.9859155 3.66757235,11.9859155 L3.66757235,11.9859155 C3.51032867,11.9859155 3.35308498,11.9867902 3.19594543,11.9867902 L3.19594543,11.9867902 Z" id="path-2"></path>
        <linearGradient x1="0.25781251%" y1="49.7500002%" x2="101.257813%" y2="49.7500002%" id="linearGradient-4">
            <stop stop-color="#21469E" offset="0%"></stop>
            <stop stop-color="#1E81EB" offset="100%"></stop>
        </linearGradient>
        <path d="M3.13543286,0.0511525709 C2.60426979,0.139507012 2.09443349,0.348983819 1.6488942,0.657737709 L1.6488942,0.657737709 C0.622359022,1.36933161 0.00810604648,2.57417473 0.00356619122,3.84206636 L0.00356619122,3.84206636 C0.00229925486,4.21484207 0.00356619122,4.58761778 0.00356619122,4.96050164 L0.00356619122,4.96050164 L0.00356619122,7.33482446 L0.00356619122,10.095333 L0.00356619122,12.3723253 L0.00356619122,13.0594785 L0.00356619122,13.2409457 C0.00356619122,13.3112399 0.00293272304,13.2965322 0.0809548868,13.3344911 L0.0809548868,13.3344911 C0.167740027,13.3766677 0.254947479,13.4176546 0.342577244,13.4575601 L0.342577244,13.4575601 C1.04213727,13.7751819 1.77991654,14.0168859 2.54134529,14.1120535 L2.54134529,14.1120535 C3.08866179,14.1805092 3.67314176,14.1995427 4.19005179,13.9757908 L4.19005179,13.9757908 C4.60412882,13.7965946 4.93416574,13.4658873 5.10372406,13.0370924 L5.10372406,13.0370924 C5.21278616,12.7615391 5.24403726,12.4704128 5.24403726,12.1756096 L5.24403726,12.1756096 L5.24403726,8.90768491 L5.24403726,8.17197467 L5.24403726,7.93730009 C5.24403726,7.91383263 5.23105116,7.84061848 5.24403726,7.8209361 L5.24403726,7.8209361 C5.2601907,7.79638719 5.38815127,7.81206821 5.424998,7.81206821 L5.424998,7.81206821 L5.70393516,7.81206821 L6.25389111,7.81206821 L8.46131655,7.81206821 L8.46131655,7.87944253 L8.46131655,11.1055151 C8.46131655,11.4842388 8.4620556,11.8630707 8.46131655,12.2417943 L8.46131655,12.2417943 C8.46057751,12.6830258 8.39744184,13.1258795 8.22123211,13.5314231 L8.22123211,13.5314231 C8.04565585,13.935669 7.76407925,14.2769745 7.41609406,14.5368469 L7.41609406,14.5368469 C6.57189214,15.1673321 5.45329292,15.3316043 4.43309242,15.3788636 L4.43309242,15.3788636 C3.7032315,15.412713 2.9704144,15.3835139 2.24372082,15.3091101 L2.24372082,15.3091101 C1.4927443,15.2323272 0.733004797,15.1181261 0.00356619122,14.916652 L0.00356619122,14.916652 L0.00356619122,15.1782547 L0.00356619122,16.9720553 L0.00356619122,19.5891636 L0.00356619122,21.9533208 L0.00356619122,22.7054691 L0.00356619122,22.9165681 C0.00356619122,22.9278151 -0.00445773902,22.9832935 0.00356619122,22.9923777 L0.00356619122,22.9923777 C0.0187694275,23.0094646 0.157076646,22.9924858 0.184421356,22.9924858 L0.184421356,22.9924858 L0.369288485,22.9924858 L0.747785721,22.9924858 L1.49612279,22.9924858 L2.99596428,22.9924858 L4.49643923,22.9924858 C5.13254686,22.9924858 5.78501908,23.037366 6.4067681,22.8763381 L6.4067681,22.8763381 C7.49401065,22.5949449 8.4178184,21.8073251 8.88806295,20.7644831 L8.88806295,20.7644831 C9.14620123,20.19218 9.23076923,19.5837564 9.23076923,18.9605169 L9.23076923,18.9605169 L9.23076923,17.9334641 L9.23076923,16.2031446 L9.23076923,13.9607586 L9.23076923,11.4085373 L9.23076923,8.7164846 L9.23076923,6.08553376 L9.23076923,3.71586118 L9.23076923,1.77920105 L9.23076923,0.476919319 L9.23076923,0.000324434911 L8.85786763,0.000324434911 L7.29921918,0.000324434911 L5.73993727,0.000324434911 L4.18540636,0.000324434911 C4.11614717,0.000324434911 4.04699356,0 3.97783995,0 L3.97783995,0 C3.69605219,0 3.41500348,0.00465023372 3.13543286,0.0511525709" id="path-5"></path>
        <linearGradient x1="100%" y1="50%" x2="0%" y2="50%" id="linearGradient-7">
            <stop stop-color="#F42D3E" offset="0%"></stop>
            <stop stop-color="#9C0017" offset="100%"></stop>
        </linearGradient>
        <path d="M3.466364,0.00947047945 C3.06636949,0.035621917 2.6705492,0.128712425 2.29977422,0.286051527 L2.29977422,0.286051527 C1.48235784,0.633338313 0.802690669,1.28152806 0.402278736,2.09480548 L0.402278736,2.09480548 C0.140033444,2.62730471 0.00750199868,3.21920968 0.0051018229,3.81584988 L0.0051018229,3.81584988 C0.00468440103,3.9123842 0.0051018229,4.00891852 0.0051018229,4.10556046 L0.0051018229,4.10556046 L0.0051018229,5.79840866 L0.0051018229,8.80786874 C0.0300427799,8.78569921 0.0556098697,8.76385254 0.0815943813,8.7422211 L0.0815943813,8.7422211 C0.173114127,8.66581155 0.268495025,8.59435248 0.366589166,8.52741341 L0.366589166,8.52741341 C0.9779035,8.11081993 1.69117313,7.87750175 2.40673858,7.73974933 L2.40673858,7.73974933 C2.9892508,7.62761024 3.58230293,7.57939689 4.1743115,7.56766641 L4.1743115,7.56766641 C4.75671937,7.55625879 5.34079693,7.57670641 5.92007413,7.64138548 L5.92007413,7.64138548 C6.51114351,7.70724836 7.09856044,7.81002459 7.67971604,7.93852178 L7.67971604,7.93852178 C7.75109518,7.95434178 7.82236997,7.97048464 7.8935404,7.98727322 L7.8935404,7.98727322 C7.93163014,7.99631322 8.07762344,8.0085818 8.09786841,8.03871514 L8.09786841,8.03871514 C8.11237382,8.06023896 8.09786841,8.14611899 8.09786841,8.170979 L8.09786841,8.170979 L8.09786841,8.48135244 L8.09786841,9.65149475 C8.01532323,9.60855473 7.93236063,9.56647567 7.84866755,9.52579565 L7.84866755,9.52579565 C7.21637776,9.21746698 6.54985939,8.98845357 5.85808699,8.875884 L5.85808699,8.875884 C4.92869718,8.72446395 3.87700277,8.72866109 3.07440486,9.3021632 L3.07440486,9.3021632 C2.29977422,9.85575577 2.02865871,10.8381028 2.1123518,11.7722364 L2.1123518,11.7722364 C2.19385342,12.6812948 2.68129781,13.4606722 3.50194922,13.8241019 L3.50194922,13.8241019 C4.31279121,14.1831192 5.25366011,14.1347982 6.10280056,13.9616391 L6.10280056,13.9616391 C6.79947767,13.8195819 7.46370022,13.5593589 8.09786841,13.2331655 L8.09786841,13.2331655 L8.09786841,13.3487484 L8.09786841,14.7124974 C8.09786841,14.7378955 8.11258253,14.8240984 8.09786841,14.8459451 L8.09786841,14.8459451 C8.07804087,14.8752175 7.92996046,14.8877013 7.8935404,14.8963108 L7.8935404,14.8963108 C7.74535563,14.9311794 7.59654473,14.9638956 7.44752513,14.9947823 L7.44752513,14.9947823 C6.86198659,15.1162842 6.27039544,15.2127109 5.67536056,15.2675967 L5.67536056,15.2675967 C5.09284833,15.3214062 4.5044922,15.3319529 3.92020593,15.3092453 L3.92020593,15.3092453 C3.32381443,15.2862148 2.72669244,15.2228271 2.14344973,15.0894871 L2.14344973,15.0894871 C1.37455864,14.9138527 0.60921563,14.611766 0.0051018229,14.0773296 L0.0051018229,14.0773296 L0.0051018229,14.3285125 L0.0051018229,16.084856 L0.0051018229,18.7053807 L0.0051018229,21.2565987 L0.0051018229,22.7694002 C0.0051018229,22.787265 -0.00637727863,22.8619526 0.0051018229,22.8763736 L0.0051018229,22.8763736 C0.0300427799,22.9075831 0.237501451,22.8819698 0.2861311,22.8819698 L0.2861311,22.8819698 L1.04354309,22.8819698 L2.56640244,22.8819698 L4.08122642,22.8819698 C4.61583949,22.8819698 5.15984455,22.9113498 5.69320534,22.8720688 L5.69320534,22.8720688 C6.66037183,22.8009326 7.57629977,22.3294534 8.21391169,21.5757969 L8.21391169,21.5757969 C8.82459989,20.8538881 9.12587413,19.9403097 9.12587413,18.988096 L9.12587413,18.988096 L9.12587413,18.1341386 L9.12587413,16.5015571 L9.12587413,14.2965497 L9.12587413,11.7233774 L9.12587413,8.99738595 L9.12587413,6.30066693 L9.12587413,3.85717561 L9.12587413,1.85147873 L9.12587413,0.498168743 L9.12587413,0.00172190535 L8.84620147,0.00172190535 L6.4947597,0.00172190535 L4.15250121,0.00172190535 C4.04178006,0.00172190535 3.93064148,0 3.81960726,0 L3.81960726,0 C3.70168558,0 3.5837639,0.00193714352 3.466364,0.00947047945" id="path-8"></path>
    </defs>
    <g id="Cards" stroke="none" stroke-width="1" fill="none" fill-rule="evenodd">
        <g id="Color-Symbols" transform="translate(-253, -133)">
            <g id="JCB" transform="translate(253, 133)">
                <path d="M63,0.5 C63.6903559,0.5 64.3153559,0.779822031 64.767767,1.23223305 C65.220178,1.68464406 65.5,2.30964406 65.5,3 L65.5,43 C65.5,43.6903559 65.220178,44.3153559 64.767767,44.767767 C64.3153559,45.220178 63.6903559,45.5 63,45.5 L3,45.5 C2.30964406,45.5 1.68464406,45.220178 1.23223305,44.767767 C0.779822031,44.3153559 0.5,43.6903559 0.5,43 L0.5,3 C0.5,2.30964406 0.779822031,1.68464406 1.23223305,1.23223305 C1.68464406,0.779822031 2.30964406,0.5 3,0.5 Z" id="Rectangle-Copy-22" stroke="#E6E7E8" fill="#FFFFFF"></path>
                <g id="Page-1-Copy-2" transform="translate(18, 12)">
                    <g id="Group-3" transform="translate(20.7692, 0)">
                        <mask id="mask-3" fill="white">
                            <use xlink:href="#path-2"></use>
                        </mask>
                        <use id="Clip-2" fill="url(#linearGradient-1)" xlink:href="#path-2"></use>
                    </g>
                    <g id="Group-6">
                        <mask id="mask-6" fill="white">
                            <use xlink:href="#path-5"></use>
                        </mask>
                        <use id="Clip-5" fill="url(#linearGradient-4)" xlink:href="#path-5"></use>
                    </g>
                    <g id="Group-9" transform="translate(10.3846, 0)">
                        <mask id="mask-9" fill="white">
                            <use xlink:href="#path-8"></use>
                        </mask>
                        <use id="Clip-8" fill="url(#linearGradient-7)" xlink:href="#path-8"></use>
                    </g>
                </g>
            </g>
        </g>
    </g>
</svg>