<?xml version="1.0" encoding="UTF-8"?>
<svg width="66px" height="46px" viewBox="0 0 66 46" version="1.1" xmlns="http://www.w3.org/2000/svg" xmlns:xlink="http://www.w3.org/1999/xlink">
    <title>color/Mastercard</title>
    <g id="Cards" stroke="none" stroke-width="1" fill="none" fill-rule="evenodd">
        <g id="Color-Symbols" transform="translate(-101, -27)">
            <g id="Mastercard" transform="translate(101, 27)">
                <path d="M3,0 L63,0 C64.6568542,-4.4408921e-16 66,1.34314575 66,3 L66,43 C66,44.6568542 64.6568542,46 63,46 L3,46 C1.34314575,46 0,44.6568542 0,43 L0,3 C0,1.34314575 1.34314575,0 3,0 Z" id="Rectangle-Copy-4" fill="#262626"></path>
                <g id="mc_symbol" transform="translate(13, 10)">
                    <g id="Group" opacity="0" fill="#FFFFFF">
                        <rect id="Rectangle" x="0" y="0" width="39.8151515" height="25.9701149"></rect>
                    </g>
                    <rect id="Rectangle" fill="#FF5F00" x="14.6575758" y="4.5245977" width="10.5030303" height="16.917931"></rect>
                    <path d="M15.7393939,12.9850575 C15.7367568,9.68425331 17.2732148,6.56556145 19.9060606,4.52758621 C15.4332698,1.06093502 9.01016282,1.56588274 5.15072663,5.68756569 C1.29129045,9.80924864 1.29129045,16.1638548 5.15072663,20.2855378 C9.01016282,24.4072207 15.4332698,24.9121684 19.9060606,21.4455172 C17.2723769,19.4068948 15.735825,16.2869104 15.7393939,12.9850575 Z" id="Path" fill="#EB001B"></path>
                    <path d="M36.5360606,20.0825078 L36.5360606,19.3794775 L36.7027273,19.3794775 L36.7027273,19.234023 L36.3060606,19.234023 L36.3060606,19.3794775 L36.4627273,19.3794775 L36.4627273,20.0825078 L36.5360606,20.0825078 Z M37.3060606,20.0825078 L37.3060606,19.234023 L37.1860606,19.234023 L37.0460606,19.8400836 L36.9060606,19.234023 L36.7860606,19.234023 L36.7860606,20.0825078 L36.8727273,20.0825078 L36.8727273,19.4400836 L37.0027273,19.9915987 L37.0927273,19.9915987 L37.2227273,19.4400836 L37.2227273,20.0825078 L37.3060606,20.0825078 Z" id="Shape" fill="#F79E1B" fill-rule="nonzero"></path>
                    <path d="M37.5575758,12.9850575 C37.5575758,17.1042286 35.1725518,20.8617576 31.4156834,22.6618074 C27.6588151,24.4618572 23.1895727,23.9884054 19.9060606,21.4425287 C22.5377577,19.4028233 24.0743313,16.2845461 24.0743313,12.9835632 C24.0743313,9.68258035 22.5377577,6.56430313 19.9060606,4.5245977 C23.1895727,1.97872109 27.6588151,1.50526928 31.4156834,3.30531907 C35.1725518,5.10536886 37.5575758,8.86289782 37.5575758,12.982069 L37.5575758,12.9850575 Z" id="Path" fill="#F79E1B"></path>
                </g>
            </g>
        </g>
    </g>
</svg>